<svg width="144" height="50" viewBox="0 0 144 50" fill="none" xmlns="http://www.w3.org/2000/svg">
<g clip-path="url(#clip0_1_788)">
<path d="M0 33.9567C0.036 33.9248 0.088 33.8968 0.106 33.8568C0.332 33.3255 0.552 32.7922 0.776 32.2589C0.916 31.9253 1.064 31.5957 1.204 31.2602C1.49 30.577 1.774 29.8919 2.058 29.2068C2.346 28.5157 2.632 27.8246 2.924 27.1354C3.176 26.5382 3.438 25.947 3.688 25.3497C3.956 24.7085 4.21 24.0594 4.476 23.4182C4.638 23.0287 4.814 22.6452 4.984 22.2597C5.266 21.6145 5.554 20.9713 5.83 20.3242C6.122 19.643 6.402 18.9579 6.688 18.2748C6.97 17.5976 7.248 16.9205 7.53 16.2434C7.818 15.5523 8.104 14.8592 8.4 14.172C8.582 13.7506 8.754 13.3231 8.982 12.9276C9.186 12.5741 9.504 12.3783 9.948 12.3164C10.246 12.2745 10.52 12.3164 10.796 12.3504C11.006 12.3763 11.2 12.4662 11.374 12.67C11.496 12.8118 11.652 12.9356 11.726 13.1194C11.858 13.445 11.968 13.7765 12.102 14.1021C12.178 14.2879 12.288 14.4577 12.37 14.6394C12.532 15.007 12.682 15.3805 12.838 15.75C12.936 15.9797 13.04 16.2074 13.14 16.4371C13.492 17.2481 13.848 18.0571 14.196 18.868C14.426 19.4053 14.648 19.9466 14.874 20.488C15.156 21.1651 15.438 21.8442 15.722 22.5213C16.012 23.2145 16.304 23.9076 16.596 24.5987C16.766 25.0002 16.95 25.3977 17.114 25.8011C17.248 26.1327 17.35 26.4763 17.482 26.8079C17.582 27.0655 17.708 27.3112 17.818 27.5649C18.074 28.1581 18.332 28.7514 18.582 29.3486C18.846 29.9818 19.098 30.619 19.362 31.2522C19.54 31.6756 19.734 32.0931 19.912 32.5166C20.158 33.1058 20.434 33.6851 20.62 34.2943C20.702 34.5599 20.592 34.8815 20.574 35.1791C20.558 35.4368 20.44 35.6306 20.276 35.8283C20.062 36.086 19.802 36.2278 19.502 36.3477C18.83 36.6153 17.724 36.1339 17.488 35.4528C17.316 34.9534 17.084 34.474 16.884 33.9847C16.714 33.5732 16.55 33.1577 16.384 32.7443C16.092 32.0192 15.802 31.2921 15.508 30.569C15.302 30.0637 15.082 29.5623 14.878 29.055C14.66 28.5137 14.458 27.9664 14.244 27.4231C14.106 27.0755 13.95 26.736 13.812 26.3884C13.61 25.883 13.418 25.3737 13.216 24.8683C13.08 24.5288 12.928 24.1952 12.792 23.8556C12.586 23.3363 12.394 22.813 12.186 22.2936C12.082 22.032 11.95 21.7783 11.846 21.5166C11.586 20.8655 11.338 20.2103 11.074 19.5611C10.842 18.9919 10.596 18.4286 10.344 17.8313C10.202 18.1689 10.07 18.4685 9.946 18.7721C9.818 19.0818 9.696 19.3953 9.572 19.707C9.292 20.4081 9.018 21.1112 8.732 21.8103C8.56 22.2277 8.366 22.6372 8.196 23.0547C7.998 23.538 7.82 24.0294 7.624 24.5128C7.454 24.9343 7.268 25.3477 7.094 25.7672C6.866 26.3205 6.646 26.8778 6.418 27.4291C6.242 27.8545 6.052 28.276 5.878 28.7034C5.676 29.2008 5.488 29.7022 5.292 30.1995C5.22 30.3813 5.132 30.5591 5.058 30.7408C4.796 31.376 4.542 32.0152 4.278 32.6504C3.97 33.3854 3.65 34.1165 3.34 34.8516C3.238 35.0953 3.18 35.3609 3.054 35.5926C2.966 35.7544 2.816 35.8962 2.664 36.0101C2.32 36.2658 1.934 36.4515 1.494 36.4136C0.93 36.3656 0.472 36.1219 0.194 35.6006C0.138 35.4947 0.068 35.3969 0.002 35.295C0.002 34.8476 0.002 34.4001 0.002 33.9547L0 33.9567Z" fill="#00ACE4"/>
<path d="M93.408 8.86363e-05C93.436 0.0320477 93.46 0.0839813 93.494 0.091971C93.994 0.207823 94.42 0.453508 94.826 0.763112C95.264 1.09668 95.562 1.53612 95.848 1.98355C96.002 2.22524 96.04 2.53884 96.156 2.81049C96.438 3.47164 96.316 4.16476 96.33 4.84589C96.336 5.08358 96.306 5.33526 96.23 5.55897C96.09 5.97844 95.944 6.40589 95.728 6.7894C95.51 7.1749 95.232 7.53644 94.838 7.78013C94.556 7.95391 94.292 8.15565 94.004 8.31544C93.68 8.49521 93.32 8.55913 92.958 8.63903C92.552 8.73091 92.156 8.69096 91.756 8.71294C91.204 8.7429 90.682 8.5831 90.192 8.36139C89.782 8.17562 89.36 7.95391 89.042 7.6463C88.646 7.26479 88.274 6.83334 88.112 6.27006C88.024 5.96645 87.872 5.68082 87.8 5.37521C87.732 5.07959 87.702 4.76998 87.704 4.46637C87.71 4.01095 87.7 3.54156 87.804 3.10412C87.93 2.57879 88.116 2.06145 88.442 1.60803C88.804 1.10667 89.254 0.701191 89.778 0.385595C90.002 0.251766 90.27 0.191843 90.516 0.091971C90.558 0.073994 90.588 0.0300503 90.624 -0.00390625C91.552 -0.00390625 92.48 -0.00390625 93.408 -0.00390625V8.86363e-05ZM92.028 7.43857C92.034 7.4166 92.038 7.39462 92.044 7.37265C92.394 7.35467 92.728 7.36266 93.084 7.21485C93.74 6.9412 94.28 6.57168 94.652 5.96645C94.698 5.89255 94.776 5.83262 94.802 5.75472C94.904 5.43114 94.982 5.09956 95.088 4.77797C95.27 4.21869 95.128 3.68337 94.942 3.17003C94.752 2.64271 94.394 2.22324 93.972 1.83774C93.558 1.45822 93.06 1.27645 92.554 1.21254C91.82 1.11866 91.08 1.18857 90.418 1.61402C89.968 1.90365 89.58 2.24322 89.354 2.73059C89.216 3.02422 89.08 3.33182 89.032 3.64742C88.966 4.06489 88.902 4.51231 88.99 4.9138C89.084 5.34325 89.33 5.74873 89.556 6.13623C89.85 6.64159 90.32 6.97516 90.852 7.1789C91.224 7.32271 91.636 7.35667 92.032 7.43857H92.028Z" fill="#00ACE4"/>
<path d="M78.1441 0C78.1601 0.0259668 78.1721 0.0739054 78.1901 0.0779003C78.6861 0.149808 79.0441 0.481384 79.4381 0.741051C79.7841 0.966763 79.7641 1.64789 79.5501 1.88559C79.3761 2.07734 78.8681 2.08134 78.6601 1.86162C78.3201 1.50208 77.8941 1.26838 77.4341 1.21045C76.9741 1.15252 76.4921 1.13655 76.0201 1.29434C75.4721 1.47611 74.9841 1.74377 74.6341 2.1872C74.3601 2.53476 74.1501 2.94223 73.9701 3.34771C73.8521 3.60938 73.7821 3.91898 73.7901 4.20262C73.8001 4.56616 73.8761 4.93768 73.9881 5.28324C74.1581 5.80457 74.4721 6.248 74.8741 6.62752C75.2081 6.94112 75.6021 7.13687 76.0321 7.28468C76.4781 7.43848 76.9401 7.40452 77.3761 7.34859C77.7261 7.30465 78.0541 7.07494 78.3901 6.92314C78.4141 6.91115 78.4301 6.85722 78.4301 6.82127C78.4321 6.31991 78.4301 5.81855 78.4301 5.28124C77.9561 5.28124 77.5021 5.28324 77.0501 5.28124C76.9661 5.28124 76.8781 5.26526 76.7961 5.23929C76.4441 5.12744 76.4621 4.8438 76.4481 4.54618C76.4341 4.24457 76.5681 4.08477 76.8161 3.9829C76.8781 3.95694 76.9541 3.95294 77.0241 3.95294C77.6721 3.95094 78.3201 3.95494 78.9681 3.94895C79.4681 3.94495 79.6601 4.20062 79.6721 4.60011C79.7001 5.50096 79.7001 6.4038 79.6761 7.30465C79.6681 7.63822 79.4641 7.87792 79.1241 8.00176C78.9601 8.06168 78.8381 8.23945 78.6741 8.30537C78.3501 8.43321 78.0021 8.50112 77.6761 8.62496C77.2481 8.78875 76.8101 8.71884 76.3801 8.70286C76.0541 8.69088 75.7321 8.56703 75.4121 8.47915C75.0261 8.37129 74.6461 8.22947 74.3521 7.94982C73.9861 7.60227 73.6181 7.24872 73.3121 6.85123C73.0961 6.57159 72.9601 6.22403 72.8301 5.89246C72.7241 5.62081 72.6401 5.32718 72.6181 5.03755C72.5841 4.55217 72.5681 4.0608 72.6221 3.57942C72.6641 3.1999 72.8221 2.83437 72.9261 2.46285C73.0881 1.88159 73.4501 1.42018 73.8821 1.02669C74.2181 0.71908 74.5441 0.375519 75.0241 0.267657C75.1781 0.233701 75.3221 0.151806 75.4661 0.0858901C75.4841 0.0779003 75.4861 0.0339565 75.4941 0.00599233C76.3741 0.00599233 77.2541 0.00599233 78.1341 0.00599233L78.1441 0Z" fill="#00ACE4"/>
<path d="M84.6721 0C84.6981 0.0319591 84.7221 0.0858901 84.7541 0.0918824C85.4301 0.239693 85.9361 0.611218 86.3001 1.20046C86.5601 1.62392 86.6761 2.07135 86.6421 2.56272C86.6321 2.71453 86.6321 2.86633 86.6421 3.01814C86.6861 3.74121 86.3441 4.28851 85.8461 4.7619C85.7441 4.85978 85.6101 4.9237 85.5081 5.01957C85.4701 5.05553 85.4461 5.16139 85.4721 5.19935C85.7801 5.69271 86.1001 6.1761 86.4121 6.66747C86.6021 6.96708 86.7901 7.2667 86.9641 7.5743C87.0681 7.76007 86.9561 8.33933 86.8081 8.50112C86.5761 8.7508 86.0201 8.64493 85.8261 8.31935C85.6241 7.97779 85.3961 7.65021 85.2201 7.29666C85.0621 6.97707 84.8041 6.73138 84.6501 6.4078C84.4961 6.08222 84.2781 5.78659 84.0701 5.49097C84.0221 5.42306 83.9001 5.37512 83.8101 5.37312C83.4501 5.35914 83.0901 5.37712 82.7301 5.36513C82.5541 5.35914 82.5161 5.42705 82.5181 5.58885C82.5241 6.41978 82.4981 7.25072 82.5301 8.07766C82.5501 8.56104 82.0761 8.72283 81.7161 8.58901C81.4601 8.49513 81.3501 8.32734 81.3521 8.02972C81.3661 5.56288 81.3641 3.09803 81.3521 0.631192C81.3521 0.371524 81.4281 0.175775 81.6001 0.00199744C82.6241 0 83.6481 0 84.6721 0ZM82.5201 2.70054C82.5201 3.07606 82.5261 3.45158 82.5161 3.8251C82.5121 3.9829 82.5641 4.03484 82.7221 4.03084C83.1061 4.02085 83.4901 4.02685 83.8741 4.02884C84.4521 4.03084 84.9341 3.86905 85.2601 3.34372C85.4901 2.97419 85.5701 2.61665 85.3461 2.22515C85.2801 2.1093 85.1981 2.00144 85.1281 1.88758C84.9241 1.55201 84.6001 1.38423 84.2321 1.35826C83.7301 1.3243 83.2261 1.35427 82.7221 1.34428C82.5641 1.34228 82.5121 1.39222 82.5161 1.55002C82.5261 1.93353 82.5201 2.31504 82.5181 2.69855L82.5201 2.70054Z" fill="#00ACE4"/>
<path d="M131.04 4.43181e-05C131.18 0.0899293 131.328 0.169827 131.46 0.269699C131.71 0.461454 131.974 0.643221 132.186 0.87093C132.358 1.05469 132.506 1.2844 132.588 1.5201C132.654 1.70986 132.64 1.94356 132.604 2.1473C132.562 2.38299 132.344 2.4569 132.132 2.47288C131.878 2.49285 131.634 2.40097 131.524 2.17326C131.256 1.61797 130.78 1.31636 130.228 1.2085C129.8 1.1246 129.336 1.16655 128.89 1.30837C128.534 1.42222 128.266 1.60199 128.098 1.92758C127.966 2.18125 128.034 2.57475 128.216 2.78848C128.6 3.2359 129.086 3.42965 129.672 3.44763C129.934 3.45562 130.19 3.58146 130.452 3.59744C130.848 3.62141 131.192 3.77721 131.534 3.943C132.08 4.20866 132.472 4.65608 132.642 5.20738C132.78 5.65481 132.816 6.17414 132.74 6.63555C132.588 7.56236 131.992 8.14162 131.102 8.48319C130.432 8.74086 129.75 8.76083 129.074 8.69292C128.628 8.64897 128.18 8.45722 127.774 8.25148C127.32 8.01978 126.94 7.6922 126.664 7.2208C126.486 6.91719 126.55 6.64354 126.538 6.35591C126.534 6.27202 126.66 6.14418 126.756 6.10223C127.13 5.93645 127.56 6.10623 127.768 6.47376C127.978 6.84328 128.316 7.02905 128.692 7.20882C129.188 7.44651 129.698 7.40257 130.19 7.35064C130.74 7.29271 131.236 6.99908 131.472 6.46976C131.598 6.18613 131.53 5.84656 131.31 5.5849C131.214 5.46904 131.096 5.36917 130.99 5.26131C130.744 5.01163 130.448 4.90177 130.098 4.85982C129.678 4.80789 129.262 4.70602 128.85 4.60016C128.558 4.52425 128.256 4.44635 127.996 4.30254C127.498 4.02889 127.076 3.6274 126.892 3.09408C126.728 2.61869 126.728 2.10535 126.842 1.58402C126.97 0.990776 127.356 0.639226 127.808 0.325628C127.976 0.209776 128.196 0.171824 128.392 0.0939241C128.434 0.0759472 128.464 0.0320034 128.498 -0.00195312C129.346 -0.00195312 130.194 -0.00195312 131.042 -0.00195312L131.04 4.43181e-05Z" fill="#00ACE4"/>
<path d="M122.544 0C122.906 0.527325 123.122 1.11857 123.328 1.7178C123.438 2.03939 123.618 2.33701 123.75 2.65061C124.076 3.4356 124.392 4.22459 124.716 5.00959C124.818 5.25527 124.936 5.49497 125.042 5.73865C125.296 6.31991 125.552 6.90117 125.798 7.48642C125.956 7.86393 125.868 8.31336 125.61 8.53707C125.388 8.72883 124.854 8.63894 124.736 8.37128C124.55 7.94982 124.378 7.52237 124.222 7.08893C124.124 6.81927 124.05 6.74736 123.764 6.74736C122.756 6.74736 121.748 6.74736 120.74 6.74736C120.336 6.74736 120.322 6.75935 120.172 7.12488C120.03 7.47044 119.884 7.816 119.742 8.16155C119.584 8.54307 119.424 8.66091 119.056 8.61697C118.89 8.597 118.718 8.55105 118.642 8.35331C118.496 7.9718 118.54 7.61625 118.706 7.24872C119.064 6.45174 119.406 5.64677 119.748 4.8418C120.038 4.16067 120.326 3.47755 120.604 2.79043C120.82 2.25711 121.004 1.70981 121.232 1.18249C121.406 0.777005 121.628 0.393496 121.83 0C122.07 0 122.31 0 122.55 0L122.544 0ZM122.19 2.2671C121.73 3.39565 121.292 4.46628 120.844 5.56488C121.724 5.56488 122.562 5.56488 123.4 5.55888C123.436 5.55888 123.514 5.45102 123.502 5.42106C123.366 5.04354 123.218 4.67002 123.07 4.2965C122.846 3.73122 122.622 3.16795 122.392 2.60666C122.346 2.4968 122.27 2.39893 122.192 2.2691L122.19 2.2671Z" fill="#00ACE4"/>
<path d="M144 8.38118C143.954 8.40715 143.9 8.42313 143.862 8.45709C143.534 8.7567 143.042 8.6808 142.856 8.27532C142.676 7.88582 142.524 7.48233 142.376 7.07885C142.294 6.85514 142.192 6.73329 141.918 6.73929C140.904 6.75726 139.888 6.75926 138.874 6.73929C138.608 6.73329 138.476 6.81119 138.384 7.05488C138.244 7.42641 138.042 7.77796 137.928 8.15547C137.862 8.37519 137.752 8.48905 137.564 8.57693C137.174 8.7607 136.736 8.49104 136.712 8.06159C136.692 7.73801 136.784 7.44838 136.914 7.15875C137.172 6.58149 137.414 5.99624 137.664 5.41498C137.976 4.68392 138.292 3.95285 138.602 3.21979C138.912 2.48873 139.218 1.75367 139.528 1.0226C139.672 0.68104 139.82 0.343472 139.968 0.00390625C140.224 0.00390625 140.48 0.00390625 140.736 0.00390625C140.814 0.109771 140.914 0.207645 140.968 0.323497C141.11 0.637096 141.23 0.958684 141.36 1.27828C141.458 1.51597 141.564 1.75167 141.654 1.99136C141.844 2.49672 142.016 3.01006 142.218 3.50942C142.322 3.76709 142.478 4.00279 142.6 4.25646C142.752 4.57406 142.902 4.89564 143.036 5.22123C143.276 5.80448 143.498 6.39373 143.738 6.97698C143.808 7.14876 143.912 7.30856 144 7.47235V8.38318V8.38118ZM141.696 5.54681C141.506 4.76581 140.486 2.39085 140.338 2.33293C139.904 3.39756 139.468 4.4622 139.024 5.54681H141.696Z" fill="#00ACE4"/>
<path d="M98.9761 0C99.2421 0.275647 99.2461 0.61721 99.2441 0.972755C99.2341 2.5767 99.2221 4.18065 99.2481 5.7846C99.2561 6.31392 99.5661 6.72939 100.002 7.02701C100.572 7.41451 101.216 7.51638 101.89 7.46245C102.066 7.44847 102.246 7.40852 102.414 7.34859C102.988 7.14485 103.424 6.77732 103.658 6.20805C103.74 6.0123 103.812 5.79458 103.812 5.58485C103.824 3.99688 103.82 2.40892 103.816 0.820949C103.816 0.517338 103.79 0.215724 104.064 0H104.736C104.998 0.211729 104.982 0.501358 104.982 0.798977C104.976 2.60067 104.982 4.40436 104.976 6.20606C104.976 6.63151 104.818 7.02301 104.568 7.36058C104.376 7.62025 104.168 7.88391 103.914 8.07766C103.642 8.28539 103.318 8.4352 103 8.57502C102.812 8.65692 102.596 8.68289 102.39 8.71484C102.118 8.75479 101.842 8.80872 101.572 8.79874C100.824 8.76877 100.08 8.69886 99.4261 8.2814C98.9681 7.98777 98.5861 7.62025 98.3121 7.14286C98.0581 6.69743 97.9681 6.22603 97.9721 5.71668C97.9841 4.12073 97.9781 2.52677 97.9741 0.930808C97.9741 0.589246 97.9381 0.245686 98.2561 0.00399489H98.9761V0Z" fill="#00ACE4"/>
<path d="M110.544 0C110.574 0.0319591 110.6 0.0858901 110.634 0.0918824C111.15 0.17178 111.564 0.44543 111.904 0.814957C112.216 1.15652 112.422 1.55201 112.534 2.02341C112.644 2.49481 112.636 2.96021 112.592 3.41363C112.548 3.85107 112.406 4.28252 112.106 4.65804C111.862 4.96365 111.582 5.20733 111.26 5.3931C110.886 5.60682 110.462 5.7047 110.024 5.7067C109.496 5.70869 108.968 5.71269 108.44 5.7027C108.28 5.7007 108.234 5.75264 108.236 5.90844C108.242 6.62752 108.218 7.3466 108.246 8.06368C108.266 8.56104 107.808 8.71684 107.442 8.597C107.17 8.50711 107.076 8.34731 107.076 8.05369C107.076 5.6268 107.078 3.2019 107.074 0.775008C107.074 0.483381 107.062 0.199744 107.326 0.00199744C108.4 0 109.472 0 110.544 0ZM110.274 4.40037C110.282 4.37041 110.29 4.29051 110.308 4.28651C110.682 4.23258 110.932 3.9829 111.106 3.69527C111.268 3.42961 111.422 3.10403 111.414 2.8104C111.406 2.51478 111.224 2.20518 111.066 1.93352C110.856 1.57399 110.504 1.37824 110.09 1.36026C109.548 1.33629 109.004 1.35826 108.462 1.34827C108.3 1.34628 108.236 1.38423 108.238 1.56C108.246 2.42889 108.246 3.29778 108.238 4.16467C108.238 4.32247 108.284 4.3724 108.442 4.37041C108.952 4.36242 109.464 4.36441 109.976 4.37041C110.076 4.37041 110.174 4.39238 110.274 4.40236V4.40037Z" fill="#00ACE4"/>
<path d="M135.36 4.43181e-05C135.36 0.0160239 135.35 0.0379957 135.356 0.0459855C135.62 0.321633 135.59 0.665193 135.59 1.00476C135.586 3.35775 135.582 5.71073 135.59 8.06372C135.59 8.35934 135.382 8.46721 135.202 8.60104C135.074 8.69691 134.692 8.59704 134.56 8.48718C134.374 8.33338 134.306 8.15361 134.308 7.90592C134.318 5.60088 134.318 3.29583 134.308 0.990776C134.308 0.625244 134.32 0.279686 134.588 -0.00195312C134.848 4.43181e-05 135.104 4.43181e-05 135.36 4.43181e-05Z" fill="#00ACE4"/>
<path d="M46.34 23.0805C46.374 23.426 46.436 23.7716 46.434 24.1191C46.43 24.7763 46.414 25.4375 46.354 26.0926C46.316 26.5121 46.186 26.9256 46.104 27.341C46.044 27.6386 46.006 27.9423 45.932 28.2359C45.86 28.5215 45.766 28.8032 45.656 29.0748C45.462 29.5542 45.28 30.0436 45.032 30.497C44.756 31.0063 44.43 31.4897 44.092 31.9631C43.8 32.3726 43.482 32.7661 43.144 33.1396C42.872 33.4392 42.554 33.6949 42.258 33.9705C42.14 34.0804 42.064 34.1663 42.29 34.2562C42.392 34.2981 42.448 34.4459 42.548 34.5078C42.626 34.5578 42.742 34.5418 42.838 34.5718C43.12 34.6617 43.394 34.7815 43.68 34.8514C44.618 35.0831 45.562 35.0931 46.5 34.8454C46.784 34.7695 47.068 34.6796 47.338 34.5638C47.574 34.4619 47.802 34.3301 48.01 34.1783C48.412 33.8866 48.804 33.579 49.184 33.2614C49.596 32.9179 50.39 32.9458 50.732 33.2614C50.902 33.4172 51.024 33.6809 51.058 33.9126C51.096 34.1743 51.022 34.4539 50.978 34.7236C50.962 34.8155 50.904 34.9093 50.838 34.9792C50.274 35.5785 49.602 36.0319 48.892 36.4414C48.234 36.8209 47.526 37.0626 46.802 37.2623C46.534 37.3362 46.226 37.2823 45.968 37.3722C45.596 37.502 45.226 37.4661 44.862 37.4441C44.352 37.4121 43.834 37.3922 43.338 37.2204C42.84 37.0486 42.306 36.9627 41.828 36.749C41.342 36.5313 40.9 36.2097 40.446 35.924C40.254 35.8022 40.084 35.6484 39.894 35.5225C39.86 35.4986 39.78 35.5285 39.728 35.5505C39.336 35.7123 38.956 35.9101 38.554 36.0339C38.036 36.1937 37.498 36.2856 36.972 36.4254C36.568 36.5333 36.154 36.5512 35.748 36.6152C34.8 36.761 33.854 36.6711 32.91 36.6711C32.428 36.6711 31.948 36.4793 31.462 36.4334C30.986 36.3874 30.55 36.2396 30.108 36.0838C29.66 35.928 29.184 35.8282 28.762 35.6204C28.064 35.2749 27.374 34.9153 26.748 34.4299C26.176 33.9865 25.582 33.571 25.12 33.0118C24.692 32.4924 24.286 31.9531 23.904 31.3998C23.65 31.0323 23.42 30.6408 23.238 30.2333C22.984 29.668 22.752 29.0868 22.568 28.4955C22.412 27.9942 22.348 27.4669 22.216 26.9575C22.076 26.4122 22.032 25.8649 22.034 25.3036C22.034 24.9721 21.962 24.6405 21.966 24.3109C21.974 23.7097 21.988 23.1044 22.048 22.5072C22.09 22.0857 22.212 21.6703 22.298 21.2528C22.356 20.9712 22.396 20.6835 22.472 20.4059C22.554 20.1083 22.654 19.8127 22.772 19.527C22.97 19.0496 23.154 18.5603 23.412 18.1148C23.756 17.5176 24.152 16.9483 24.55 16.383C24.786 16.0495 25.038 15.7179 25.336 15.4403C25.808 14.9988 26.3 14.5694 26.828 14.1978C27.378 13.8083 27.96 13.4508 28.566 13.1552C29.162 12.8636 29.8 12.6538 30.43 12.4341C30.692 12.3422 30.976 12.3043 31.254 12.2603C31.684 12.1904 32.116 12.1245 32.55 12.0786C32.964 12.0346 33.382 12.0047 33.798 11.9947C34.366 11.9807 34.934 11.9747 35.502 11.9987C35.794 12.0106 36.082 12.0965 36.372 12.1485C36.724 12.2124 37.076 12.2703 37.428 12.3402C37.664 12.3862 37.904 12.4281 38.13 12.506C38.586 12.6638 39.046 12.8196 39.482 13.0233C40.054 13.289 40.614 13.5826 41.16 13.8982C41.458 14.07 41.722 14.3057 41.992 14.5234C42.278 14.7531 42.572 14.9788 42.83 15.2385C43.176 15.5881 43.508 15.9556 43.816 16.3391C44.126 16.7246 44.408 17.1321 44.682 17.5436C44.852 17.7972 45.006 18.0669 45.124 18.3485C45.38 18.9598 45.638 19.571 45.836 20.2022C45.998 20.7175 46.074 21.2588 46.182 21.7921C46.268 22.2176 46.342 22.645 46.422 23.0725C46.396 23.0765 46.37 23.0805 46.346 23.0845L46.34 23.0805ZM28.172 31.2121C28.224 31.1841 28.306 31.1601 28.358 31.1062C28.816 30.6308 29.36 30.2573 29.952 29.9976C30.488 29.7639 31.034 29.5402 31.626 29.4124C32.19 29.2905 32.756 29.2446 33.318 29.1887C33.776 29.1427 34.25 29.2286 34.714 29.2705C34.93 29.2905 35.144 29.3385 35.354 29.3884C35.604 29.4503 35.848 29.5262 36.094 29.6001C36.362 29.68 36.638 29.738 36.892 29.8498C37.286 30.0236 37.676 30.2133 38.048 30.4311C38.508 30.7007 38.972 30.9744 39.344 31.3699C39.42 31.4518 39.492 31.5476 39.586 31.5996C39.656 31.6375 39.792 31.6595 39.84 31.6175C40.138 31.3679 40.452 31.1282 40.698 30.8326C41.124 30.3192 41.52 29.7779 41.9 29.2306C42.218 28.7712 42.46 28.2658 42.618 27.7265C42.746 27.2891 42.864 26.8477 42.964 26.4022C43.06 25.9688 43.188 25.5293 43.194 25.0919C43.202 24.4627 43.256 23.8315 43.138 23.1943C43.052 22.7309 43.028 22.2555 42.874 21.8001C42.736 21.3906 42.678 20.9492 42.504 20.5557C42.172 19.8107 41.782 19.0856 41.262 18.4504C40.958 18.0789 40.578 17.7693 40.25 17.4137C39.84 16.9683 39.334 16.6567 38.818 16.3591C38.41 16.1234 37.994 15.8797 37.55 15.7359C37.102 15.5921 36.65 15.4462 36.184 15.3404C35.648 15.2185 35.108 15.2225 34.574 15.1426C34.188 15.0847 33.776 15.2105 33.376 15.2105C32.71 15.2105 32.068 15.3144 31.448 15.5561C31.006 15.7279 30.544 15.8577 30.118 16.0615C29.692 16.2652 29.288 16.5189 28.9 16.7885C28.552 17.0302 28.208 17.2939 27.92 17.6015C27.478 18.0709 27.084 18.5862 26.674 19.0856C26.614 19.1575 26.564 19.2374 26.524 19.3213C26.458 19.4611 26.41 19.6089 26.344 19.7467C26.16 20.1263 25.926 20.4878 25.794 20.8833C25.608 21.4386 25.482 22.0158 25.356 22.5871C25.278 22.9427 25.208 23.3082 25.206 23.6697C25.204 24.3169 25.256 24.9661 25.282 25.6132C25.286 25.7151 25.25 25.825 25.274 25.9208C25.352 26.2424 25.434 26.564 25.538 26.8776C25.7 27.365 25.848 27.8584 26.058 28.3238C26.44 29.1747 26.906 29.9776 27.578 30.6448C27.764 30.8306 27.96 31.0063 28.174 31.2061L28.172 31.2121ZM37.448 32.9059C35.09 31.3838 32.7 31.1102 30.2 32.6103C31.366 33.2495 32.592 33.4612 33.828 33.5131C35.062 33.5651 36.294 33.4172 37.448 32.9059Z" fill="#00ACE4"/>
<path d="M71.1359 21.3907C71.1359 23.8176 71.1359 26.2445 71.1359 28.6694C71.1359 29.2826 71.0299 29.8779 70.8839 30.4751C70.7439 31.0484 70.5519 31.5917 70.2819 32.113C69.9779 32.7002 69.6499 33.2675 69.1639 33.7329C68.8139 34.0685 68.4879 34.428 68.1299 34.7556C67.9159 34.9494 67.6719 35.1191 67.4239 35.267C67.0299 35.5007 66.6359 35.7383 66.2159 35.9161C65.6819 36.1418 65.1319 36.3376 64.5739 36.4954C64.0759 36.6352 63.5599 36.7111 63.0439 36.785C62.1119 36.9208 61.1839 36.8429 60.2559 36.8409C59.6839 36.8409 59.1219 36.757 58.5679 36.6032C58.1039 36.4754 57.6139 36.4215 57.1719 36.2437C56.5259 35.986 55.9139 35.6465 55.2839 35.3449C54.8079 35.1171 54.4319 34.7576 54.0159 34.444C53.5479 34.0905 53.2259 33.635 52.8639 33.1996C52.4759 32.7342 52.1819 32.2189 51.9419 31.6696C51.7899 31.32 51.6519 30.9645 51.5319 30.6029C51.4739 30.4311 51.4799 30.2394 51.4479 30.0576C51.3959 29.77 51.3339 29.4824 51.2799 29.1947C51.2679 29.1328 51.2679 29.0689 51.2679 29.005C51.2679 23.9215 51.2639 18.836 51.2699 13.7525C51.2699 13.1553 51.9059 12.3043 52.6339 12.3143C52.9759 12.3183 53.3039 12.3223 53.6339 12.4082C54.0939 12.5281 54.3399 12.8716 54.4839 13.2791C54.5659 13.5088 54.5759 13.7725 54.5759 14.0202C54.5799 18.8659 54.5759 23.7097 54.5879 28.5555C54.5879 28.8971 54.6939 29.2447 54.7859 29.5802C54.8699 29.8898 54.9819 30.1974 55.1179 30.4891C55.2159 30.7008 55.3719 30.8866 55.5059 31.0823C55.8819 31.6296 56.3639 32.085 56.8999 32.4526C57.3959 32.7921 57.9579 33.0478 58.5179 33.2715C58.9519 33.4433 59.4279 33.5092 59.8839 33.6211C59.8999 33.6251 59.9159 33.6251 59.9319 33.6271C60.5799 33.657 61.2299 33.7249 61.8779 33.703C62.3379 33.687 62.7919 33.5372 63.2519 33.4693C63.8559 33.3794 64.4079 33.1636 64.9399 32.872C65.4739 32.5804 65.9579 32.2328 66.3899 31.7954C66.8379 31.342 67.1739 30.8246 67.4419 30.2614C67.5839 29.9637 67.6439 29.6242 67.7279 29.3006C67.9579 28.4097 67.9079 27.4989 67.9079 26.5941C67.9079 22.3155 67.9159 18.037 67.8999 13.7585C67.8979 13.0774 68.3459 12.556 68.8799 12.3802C69.1299 12.2984 69.4339 12.1705 69.7419 12.3183C69.9039 12.3962 70.1259 12.3523 70.2879 12.4322C70.8459 12.7098 71.1419 13.1573 71.1419 13.8004C71.1359 16.3312 71.1399 18.86 71.1399 21.3907H71.1359Z" fill="#00ACE4"/>
<path d="M135.722 11.9865C136.114 11.9865 136.508 11.9666 136.898 11.9925C137.19 12.0125 137.48 12.0944 137.77 12.1463C137.84 12.1583 137.914 12.1483 137.984 12.1623C138.22 12.2063 138.454 12.2602 138.688 12.3041C138.812 12.3261 138.944 12.3181 139.062 12.3521C139.812 12.5738 140.532 12.8714 141.206 13.2629C141.702 13.5505 142.178 13.8721 142.642 14.2097C142.944 14.4294 143.228 14.6811 143.478 14.9567C143.606 15.0986 143.676 15.3203 143.71 15.518C143.748 15.7517 143.71 15.9954 143.72 16.2351C143.74 16.7105 143.47 17.0001 143.12 17.2718C142.722 17.5834 142.27 17.5494 141.83 17.5095C141.614 17.4895 141.39 17.3537 141.204 17.2238C140.738 16.9023 140.298 16.5467 139.834 16.2231C139.638 16.0873 139.41 15.9934 139.19 15.8935C138.83 15.7318 138.47 15.57 138.102 15.4301C137.908 15.3562 137.698 15.3143 137.492 15.2883C137.166 15.2484 136.834 15.2344 136.506 15.2064C136.184 15.1805 135.858 15.1106 135.542 15.1365C134.96 15.1845 134.378 15.2204 133.798 15.3522C133.142 15.5001 132.544 15.7717 131.932 16.0154C131.598 16.1492 131.308 16.3929 130.992 16.5747C130.658 16.7664 130.388 17.0341 130.104 17.2858C129.988 17.3896 129.85 17.4735 129.746 17.5874C129.24 18.1487 128.738 18.704 128.35 19.3671C127.94 20.0722 127.576 20.7893 127.35 21.5703C127.242 21.9378 127.206 22.3253 127.098 22.6928C126.884 23.4179 126.906 24.157 126.928 24.896C126.938 25.2336 127.034 25.5692 127.09 25.9067C127.124 26.1065 127.14 26.3082 127.19 26.504C127.278 26.8535 127.372 27.2031 127.486 27.5446C127.562 27.7743 127.668 27.9961 127.774 28.2158C127.932 28.5394 128.084 28.8689 128.27 29.1765C128.458 29.4921 128.664 29.8017 128.896 30.0894C129.188 30.4529 129.5 30.8025 129.83 31.132C130.086 31.3877 130.362 31.6334 130.664 31.8292C131.212 32.1847 131.768 32.5422 132.358 32.8199C132.854 33.0536 133.4 33.1694 133.938 33.3093C134.67 33.497 135.398 33.3971 136.124 33.4511C136.508 33.479 136.864 33.3392 137.228 33.3132C137.956 33.2613 138.58 32.9237 139.228 32.6741C139.754 32.4723 140.226 32.1248 140.716 31.8292C141.012 31.6514 141.282 31.4317 141.584 31.2679C142.06 31.0102 142.916 31.128 143.26 31.5255C143.476 31.7752 143.678 32.0668 143.646 32.4404C143.62 32.754 143.624 33.0696 143.576 33.3792C143.518 33.7547 143.248 34.0183 142.964 34.2201C142.448 34.5916 141.912 34.9432 141.352 35.2448C140.792 35.5464 140.202 35.7921 139.612 36.0338C139.232 36.1896 138.838 36.3254 138.436 36.4093C137.972 36.5052 137.486 36.5052 137.022 36.601C136.222 36.7688 135.416 36.6869 134.618 36.663C134.14 36.647 133.638 36.631 133.166 36.4432C132.908 36.3394 132.616 36.3274 132.346 36.2555C132 36.1636 131.65 36.0757 131.32 35.9419C130.872 35.7601 130.432 35.5504 130.006 35.3227C129.634 35.1229 129.288 34.8752 128.926 34.6555C128.066 34.1342 127.388 33.4031 126.702 32.688C126.394 32.3665 126.132 31.9969 125.886 31.6234C125.594 31.178 125.314 30.7206 125.078 30.2452C124.818 29.7218 124.588 29.1805 124.392 28.6312C124.216 28.1359 124.094 27.6205 123.972 27.1072C123.912 26.8595 123.902 26.5978 123.882 26.3402C123.846 25.9147 123.822 25.4893 123.788 25.0638C123.762 24.7442 123.702 24.4246 123.706 24.105C123.712 23.6356 123.74 23.1642 123.796 22.6988C123.854 22.2075 123.922 21.7101 124.05 21.2327C124.21 20.6355 124.41 20.0462 124.64 19.473C124.868 18.9037 125.112 18.3304 125.428 17.8091C125.796 17.2059 126.248 16.6546 126.67 16.0853C126.8 15.9075 126.93 15.7218 127.092 15.578C127.306 15.3862 127.472 15.1465 127.694 14.9667C127.922 14.785 128.156 14.6092 128.394 14.4394C128.886 14.0879 129.356 13.6904 129.884 13.4047C130.484 13.0792 131.134 12.8375 131.774 12.5958C132.238 12.422 132.72 12.2962 133.2 12.1703C133.416 12.1124 133.646 12.0924 133.872 12.0764C134.486 12.0305 135.102 11.9945 135.718 11.9546C135.718 11.9666 135.718 11.9786 135.72 11.9905L135.722 11.9865Z" fill="#00ACE4"/>
<path d="M73.688 34.6476C73.63 34.2481 73.838 33.9205 73.968 33.5809C74.198 32.9837 74.44 32.3885 74.686 31.7972C74.878 31.3378 75.088 30.8864 75.28 30.427C75.54 29.8078 75.786 29.1826 76.046 28.5633C76.188 28.2238 76.36 27.8982 76.504 27.5586C76.756 26.9614 76.994 26.3582 77.24 25.7589C77.332 25.5352 77.43 25.3155 77.528 25.0938C77.8 24.4726 78.08 23.8534 78.346 23.2302C78.55 22.7528 78.74 22.2654 78.94 21.786C79.252 21.045 79.568 20.3059 79.88 19.5649C80.168 18.8817 80.45 18.1966 80.738 17.5135C80.97 16.9602 81.208 16.4109 81.438 15.8576C81.7 15.2284 81.954 14.5952 82.212 13.964C82.292 13.7683 82.386 13.5785 82.456 13.3788C82.588 13.0152 82.842 12.7456 83.122 12.4979C83.194 12.434 83.304 12.4 83.4 12.3841C83.56 12.3581 83.782 12.418 83.874 12.3321C84.044 12.1723 84.156 12.2942 84.296 12.3241C84.418 12.3501 84.548 12.3401 84.668 12.3741C85.136 12.5059 85.386 12.8674 85.57 13.2809C85.688 13.5446 85.774 13.8202 85.884 14.0859C86.1 14.6032 86.32 15.1166 86.542 15.6319C86.824 16.2851 87.112 16.9362 87.396 17.5894C87.564 17.9769 87.734 18.3644 87.892 18.7559C88.108 19.2912 88.306 19.8325 88.522 20.3658C88.654 20.6914 88.814 21.007 88.95 21.3326C89.186 21.9039 89.404 22.4811 89.646 23.0504C89.872 23.5817 90.13 24.1011 90.352 24.6344C90.64 25.3235 90.904 26.0226 91.184 26.7157C91.278 26.9474 91.396 27.1691 91.492 27.3988C91.766 28.054 92.032 28.7132 92.304 29.3703C92.394 29.586 92.492 29.7998 92.582 30.0175C92.86 30.6866 93.132 31.3578 93.416 32.0249C93.556 32.3565 93.716 32.6801 93.866 33.0077C94.168 33.6748 94.478 34.342 94.358 35.103C94.3 35.4685 94.138 35.8061 93.838 36.0318C93.482 36.2994 93.072 36.4632 92.612 36.4173C92.25 36.3813 91.898 36.2615 91.632 36.0178C91.33 35.7422 91.148 35.3786 91.038 34.9731C90.968 34.7135 90.814 34.4758 90.712 34.2221C90.438 33.543 90.174 32.8618 89.9 32.1827C89.694 31.6754 89.472 31.176 89.268 30.6667C89.074 30.1813 88.898 29.6899 88.704 29.2045C88.55 28.819 88.374 28.4435 88.22 28.058C88.01 27.5327 87.814 27.0033 87.606 26.478C87.482 26.1664 87.342 25.8628 87.218 25.5512C86.944 24.8641 86.68 24.173 86.404 23.4878C86.236 23.0724 86.046 22.6649 85.876 22.2494C85.676 21.7621 85.492 21.2687 85.294 20.7813C85.176 20.4917 85.044 20.208 84.924 19.9184C84.788 19.5908 84.654 19.2593 84.524 18.9277C84.402 18.6161 84.292 18.3005 84.17 17.9909C84.16 17.9649 84.1 17.9369 84.072 17.9449C84.034 17.9569 83.992 17.9949 83.978 18.0308C83.786 18.4922 83.596 18.9516 83.412 19.4171C83.222 19.9004 83.04 20.3858 82.852 20.8692C82.772 21.0729 82.684 21.2747 82.602 21.4764C82.43 21.8999 82.298 22.3473 82.072 22.7408C81.898 23.0424 81.836 23.378 81.672 23.6796C81.506 23.9832 81.43 24.3348 81.302 24.6603C81.198 24.924 81.072 25.1757 80.964 25.4373C80.738 25.9926 80.522 26.5499 80.294 27.1032C80.128 27.5067 79.942 27.9022 79.778 28.3077C79.572 28.821 79.382 29.3404 79.178 29.8537C79.096 30.0634 78.994 30.2672 78.906 30.4749C78.712 30.9423 78.524 31.4117 78.328 31.8791C78.044 32.5622 77.756 33.2454 77.47 33.9285C77.256 34.4398 77.036 34.9492 76.836 35.4645C76.656 35.9319 76.266 36.1476 75.848 36.3194C75.256 36.5611 74.71 36.3674 74.24 36.0138C74.042 35.866 73.92 35.5904 73.822 35.3487C73.734 35.1309 73.726 34.8793 73.684 34.6436L73.688 34.6476Z" fill="#00ACE4"/>
<path d="M100.786 15.5621C100.686 15.5621 100.6 15.5621 100.512 15.5621C98.4479 15.5621 96.3839 15.5741 94.3199 15.5521C93.8619 15.5481 93.3939 15.4163 93.0759 15.0428C92.9259 14.867 92.8359 14.6273 92.7699 14.4016C92.7059 14.1879 92.6699 13.9522 92.6839 13.7305C92.7179 13.2171 92.9159 12.7597 93.3559 12.4701C93.5519 12.3402 93.8099 12.2584 94.0239 12.3642C94.1059 12.3163 94.1579 12.2743 94.2159 12.2564C94.2679 12.2404 94.3259 12.2524 94.3819 12.2524C99.7419 12.2524 105.102 12.2484 110.462 12.2604C110.886 12.2604 111.342 12.3123 111.666 12.6359C111.884 12.8536 112.102 13.0973 112.092 13.4508C112.084 13.6985 112.08 13.9462 112.092 14.1939C112.116 14.6453 111.884 14.9589 111.552 15.2146C111.232 15.4623 110.85 15.5561 110.458 15.5581C108.442 15.5661 106.426 15.5621 104.41 15.5621C104.322 15.5621 104.236 15.5621 104.112 15.5621V15.8518C104.112 22.1018 104.114 28.3518 104.104 34.6018C104.104 35.0292 104.02 35.4646 103.738 35.8202C103.532 36.0819 103.244 36.2297 102.938 36.3335C102.276 36.5553 101.684 36.3735 101.206 35.9121C100.934 35.6484 100.798 35.2889 100.798 34.8674C100.81 30.485 100.806 26.1026 100.806 21.7202C100.806 19.7008 100.806 17.6814 100.806 15.662C100.806 15.64 100.796 15.6161 100.782 15.5621H100.786Z" fill="#00ACE4"/>
<path d="M115.56 24.3191C115.56 20.7517 115.554 17.1862 115.568 13.6188C115.568 13.1893 115.808 12.8538 116.162 12.5741C116.46 12.3404 116.806 12.3065 117.128 12.2725C117.436 12.2386 117.802 12.3165 118.074 12.4683C118.4 12.65 118.66 12.9676 118.774 13.3431C118.85 13.5948 118.874 13.8705 118.874 14.1341C118.88 21.0033 118.888 27.8745 118.868 34.7438C118.864 35.8004 118.092 36.5275 116.954 36.4056C116.28 36.3317 115.788 35.9262 115.566 35.2551C115.546 35.1972 115.558 35.1293 115.558 35.0653C115.558 31.4819 115.558 27.9005 115.558 24.3171L115.56 24.3191Z" fill="#00ACE4"/>
<path d="M71.1639 46.1089C71.2779 45.6914 71.3839 45.272 71.5099 44.8585C71.5339 44.7826 71.6319 44.6867 71.7059 44.6767C71.9019 44.6508 72.1019 44.6687 72.3659 44.6687C72.3259 44.9484 72.2779 45.1961 72.2539 45.4477C72.2119 45.9171 72.0299 46.3366 71.8219 46.7521C71.7939 46.808 71.8279 46.9338 71.8779 46.9858C72.0219 47.1376 72.1899 47.2654 72.3439 47.4112C72.5619 47.619 72.7899 47.8207 72.9839 48.0484C73.0659 48.1443 73.0799 48.3001 73.1419 48.4759C72.7259 48.4759 72.3679 48.4938 72.0119 48.4659C71.8959 48.4559 71.7799 48.336 71.6859 48.2442C71.5199 48.0844 71.3779 47.8946 71.2039 47.7448C71.1559 47.7049 70.9939 47.7328 70.9339 47.7847C70.4419 48.2122 69.8799 48.4519 69.2259 48.4759C69.1279 48.4799 69.0299 48.5677 68.9379 48.5598C68.3499 48.5098 67.7559 48.4459 67.3059 48.0085C66.9259 47.6389 66.6599 47.2155 66.6959 46.6402C66.7199 46.2547 66.6919 45.8672 66.8659 45.5077C66.8719 45.4937 66.8719 45.4737 66.8819 45.4637C67.1679 45.1541 67.3759 44.7646 67.7879 44.5848C67.9659 44.5069 68.0199 44.431 67.8879 44.2273C67.7539 44.0196 67.6839 43.7579 67.6419 43.5102C67.6019 43.2785 67.6479 43.0328 67.6299 42.7931C67.5939 42.2878 68.0339 41.6706 68.5219 41.4648C68.8859 41.311 69.2439 41.2311 69.6299 41.2371C70.4059 41.2491 71.1339 41.8483 71.2859 42.5994C71.3639 42.9789 71.2659 43.0828 70.8839 43.1087C70.5839 43.1287 70.4239 43.0408 70.2779 42.7552C70.1059 42.4196 69.8059 42.1719 69.3659 42.2438C68.9739 42.3098 68.6959 42.5395 68.5619 42.897C68.4439 43.2146 68.5979 43.5182 68.8059 43.7479C69.3299 44.3332 69.8819 44.8944 70.4219 45.4657C70.6359 45.6934 70.8519 45.9191 71.0679 46.1448C71.0979 46.1329 71.1279 46.1209 71.1559 46.1089H71.1639ZM70.3839 47.0836C70.3899 47.0437 70.3959 47.0038 70.4019 46.9658C70.2259 46.804 70.0439 46.6462 69.8739 46.4784C69.4839 46.0949 69.0999 45.7034 68.7039 45.3239C68.6559 45.278 68.5159 45.252 68.4799 45.284C68.2579 45.4797 68.0399 45.6854 67.8479 45.9091C67.6399 46.1528 67.6479 46.7281 67.8379 46.9758C68.1599 47.3932 68.5999 47.563 69.1139 47.561C69.2179 47.561 69.3259 47.5131 69.4279 47.4731C69.7499 47.3473 70.0679 47.2135 70.3879 47.0817L70.3839 47.0836Z" fill="#00ACE4"/>
<path d="M125.56 48.4619H124.568C124.564 48.382 124.558 48.3121 124.558 48.2422C124.558 47.2055 124.568 46.1669 124.548 45.1302C124.544 44.9424 124.454 44.7407 124.358 44.5709C124.114 44.1414 123.37 44.2353 123.034 44.5349C122.828 44.7207 122.716 44.9065 122.724 45.2081C122.748 46.2827 122.734 47.3593 122.734 48.4559H121.74V43.4004H122.522C122.57 43.5582 122.618 43.712 122.68 43.9177C123.054 43.4743 123.51 43.1727 124.068 43.2526C124.558 43.3245 125.034 43.5222 125.156 44.1714C125.23 44.0695 125.268 44.0016 125.32 43.9477C125.644 43.6081 125.986 43.3485 126.494 43.2786C127.188 43.1827 127.704 43.4224 128.112 43.9297C128.26 44.1135 128.372 44.3811 128.376 44.6128C128.402 45.8872 128.388 47.1636 128.388 48.4579H127.478V48.1603C127.478 47.2674 127.49 46.3726 127.47 45.4797C127.464 45.2321 127.39 44.9724 127.292 44.7427C127.122 44.3432 126.78 44.2573 126.37 44.2973C126.044 44.3272 125.864 44.515 125.706 44.7666C125.586 44.9564 125.556 45.1561 125.556 45.3759C125.562 46.3966 125.558 47.4173 125.558 48.4659L125.56 48.4619Z" fill="#00ACE4"/>
<path d="M12.8101 46.88C13.0601 46.141 13.3061 45.4159 13.5521 44.6908C13.6701 44.3393 13.7901 43.9877 13.9041 43.6342C14.0061 43.3106 14.3021 43.1888 14.6301 43.3226C14.8121 43.3965 14.8821 43.5203 14.9321 43.7001C15.0781 44.2194 15.2461 44.7328 15.4141 45.2461C15.5361 45.6197 15.6661 45.9912 15.7941 46.3627C15.8501 46.5285 15.9101 46.6923 16.0161 46.8601C16.1121 46.5065 16.2021 46.153 16.3061 45.8034C16.3941 45.5058 16.5081 45.2162 16.5981 44.9185C16.7061 44.565 16.8201 44.2115 16.8921 43.8479C16.9741 43.4444 17.0221 43.3825 17.4421 43.3825C17.5141 43.3825 17.5861 43.3825 17.6581 43.3825C17.9981 43.3825 18.0781 43.4864 17.9721 43.808C17.8561 44.1595 17.7301 44.5091 17.6161 44.8626C17.5021 45.2162 17.4041 45.5737 17.2881 45.9253C17.1381 46.3807 16.9721 46.8301 16.8221 47.2855C16.7121 47.6231 16.6261 47.9686 16.5081 48.3022C16.4821 48.3741 16.3741 48.454 16.2941 48.464C16.1221 48.488 15.9381 48.498 15.7701 48.464C15.6561 48.44 15.5001 48.3502 15.4661 48.2523C15.2981 47.7869 15.1701 47.3095 15.0161 46.8381C14.8561 46.3447 14.6861 45.8553 14.5201 45.366C14.4781 45.2401 14.4341 45.1123 14.3901 44.9865C14.3681 44.9905 14.3481 44.9945 14.3261 44.9984C14.2601 45.2142 14.1941 45.4299 14.1281 45.6436C13.9841 46.107 13.8461 46.5744 13.6901 47.0358C13.5401 47.4753 13.3721 47.9107 13.1981 48.3422C13.1741 48.4001 13.0781 48.462 13.0121 48.466C12.7821 48.482 12.5501 48.472 12.3181 48.472C12.1361 47.9407 11.9501 47.4253 11.7821 46.902C11.6221 46.4086 11.4841 45.9093 11.3261 45.4139C11.1781 44.9485 11.0141 44.4891 10.8601 44.0277C10.8081 43.8739 10.7581 43.7201 10.7221 43.5623C10.6981 43.4564 10.7301 43.3765 10.8701 43.3785C11.1101 43.3845 11.3521 43.3645 11.5901 43.3865C11.6701 43.3945 11.7821 43.4824 11.8101 43.5603C11.9341 43.9018 12.0381 44.2494 12.1381 44.599C12.2601 45.0244 12.3721 45.4519 12.4901 45.8793C12.5781 46.2009 12.6681 46.5205 12.7601 46.8421C12.7641 46.8581 12.7961 46.8661 12.8161 46.878L12.8101 46.88Z" fill="#00ACE4"/>
<path d="M78.4941 44.0137C78.6501 43.8859 78.7701 43.81 78.8601 43.7061C79.0801 43.4564 79.3721 43.3605 79.6801 43.2906C79.7941 43.2647 79.9061 43.2027 80.0181 43.2067C80.4801 43.2267 80.8961 43.3565 81.2601 43.6721C81.7121 44.0636 81.8701 44.565 81.9341 45.1243C81.9621 45.3819 82.0201 45.6396 82.0141 45.8953C82.0061 46.3227 81.9201 46.7362 81.7821 47.1497C81.6701 47.4853 81.5101 47.7769 81.2521 47.9966C80.9221 48.2762 80.5701 48.5459 80.0841 48.474C79.9741 48.458 79.8601 48.464 79.7481 48.474C79.3301 48.5079 78.9461 48.442 78.5941 48.0865V49.9321H77.5761C77.5761 49.8522 77.5761 49.7683 77.5761 49.6844C77.5761 47.675 77.5801 45.6656 77.5701 43.6562C77.5701 43.4304 77.6321 43.3505 77.8521 43.3825C77.9381 43.3945 78.0301 43.3945 78.1161 43.3825C78.3781 43.3446 78.4681 43.4125 78.4921 43.756C78.4961 43.8179 78.4921 43.8819 78.4921 44.0137H78.4941ZM78.5821 45.9512C78.5821 46.2468 78.5761 46.5425 78.5861 46.8361C78.5881 46.916 78.6181 47.0099 78.6681 47.0698C78.8481 47.2875 79.0661 47.4473 79.3441 47.5332C79.7401 47.657 80.3521 47.3974 80.6161 47.0798C80.9181 46.7182 80.8721 46.2728 81.0161 45.8753C81.0341 45.8234 81.0021 45.7535 80.9881 45.6915C80.9701 45.6176 80.9301 45.5437 80.9321 45.4698C80.9341 45.1283 80.7881 44.8566 80.5921 44.585C80.3621 44.2674 80.0501 44.2953 79.7221 44.2893C79.3941 44.2833 79.1521 44.4272 78.9061 44.6129C78.6281 44.8247 78.5381 45.0863 78.5801 45.4219C78.6021 45.5957 78.5841 45.7734 78.5841 45.9472L78.5821 45.9512Z" fill="#00ACE4"/>
<path d="M39.0359 43.3845C39.2339 43.3845 39.4179 43.3865 39.5999 43.3845C39.7719 43.3825 39.8419 43.4644 39.8439 43.6342C39.8439 43.7221 39.8819 43.81 39.9019 43.8978C39.9739 43.8579 40.0539 43.8299 40.1159 43.776C40.4659 43.4684 40.8879 43.2966 41.3339 43.2227C41.5659 43.1848 41.8279 43.2706 42.0659 43.3366C42.5039 43.4584 42.8419 43.7341 43.0319 44.1415C43.1499 44.3932 43.1639 44.6908 43.2639 44.9545C43.4379 45.4119 43.3379 45.8813 43.3459 46.3427C43.3619 47.2316 42.7079 48.1624 41.8679 48.448C41.6799 48.5119 41.4579 48.464 41.2499 48.476C40.8219 48.4999 40.4039 48.488 40.0759 48.1524C40.0619 48.1384 40.0319 48.1404 40.0079 48.1404C39.9939 48.1404 39.9779 48.1484 39.9439 48.1584V49.9321H39.0359V43.3845ZM39.9339 46.0131C39.9339 46.2928 39.9279 46.5724 39.9379 46.8501C39.9399 46.93 39.9639 47.0238 40.0139 47.0838C40.3839 47.5372 41.0479 47.707 41.5739 47.4353C42.1059 47.1597 42.2739 46.6583 42.3419 46.115C42.3939 45.6955 42.3219 45.2841 42.1839 44.8846C42.0819 44.591 41.8419 44.3612 41.5899 44.3233C41.2619 44.2734 40.8919 44.1855 40.5619 44.4431C40.1959 44.7288 39.8359 44.9864 39.9299 45.5317C39.9559 45.6875 39.9339 45.8493 39.9339 46.0091V46.0131Z" fill="#00ACE4"/>
<path d="M57.95 48.476C57.616 48.476 57.316 48.514 57.032 48.4601C56.878 48.4301 56.736 48.2583 56.62 48.1245C56.408 47.8808 56.224 47.6151 56.02 47.3655C55.742 47.0239 55.452 46.6903 55.174 46.3468C55.05 46.193 54.904 46.131 54.684 46.195V48.4581H53.758C53.758 48.3742 53.758 48.2963 53.758 48.2204C53.758 45.9553 53.762 43.6882 53.752 41.4231C53.752 41.2013 53.808 41.1155 54.032 41.1454C54.142 41.1594 54.256 41.1474 54.368 41.1474C54.672 41.1474 54.674 41.1474 54.674 41.463C54.674 42.6435 54.674 43.824 54.674 45.0045C54.674 45.0824 54.674 45.1583 54.674 45.2322C54.878 45.2941 55.02 45.2602 55.144 45.1123C55.358 44.8587 55.586 44.617 55.808 44.3693C56.062 44.0857 56.312 43.8 56.57 43.5204C56.626 43.4605 56.71 43.3945 56.782 43.3905C57.124 43.3766 57.466 43.3845 57.894 43.3845C57.82 43.5483 57.7899 43.6862 57.7099 43.778C57.4019 44.1296 57.08 44.4712 56.756 44.8107C56.542 45.0364 56.33 45.2701 56.094 45.4719C55.916 45.6217 55.988 45.7435 56.09 45.8654C56.508 46.3707 56.934 46.8681 57.35 47.3754C57.538 47.6051 57.722 47.8388 57.882 48.0885C57.942 48.1824 57.9259 48.3242 57.9479 48.476H57.95Z" fill="#00ACE4"/>
<path d="M30.0719 46.0789C29.6239 46.0789 29.1759 46.0789 28.7299 46.0789C28.4479 46.0789 28.4779 46.0749 28.5099 46.3566C28.5559 46.7601 28.7819 47.0357 29.0619 47.2894C29.3459 47.5451 29.9339 47.6569 30.3059 47.5031C30.5999 47.3813 30.8959 47.2594 31.1779 47.1136C31.3219 47.0397 31.4159 47.0537 31.5099 47.1695C31.5159 47.1755 31.5219 47.1795 31.5279 47.1855C31.8999 47.549 31.8659 47.8706 31.4019 48.1143C30.9839 48.334 30.5559 48.5278 30.0559 48.4739C29.6359 48.4279 29.2099 48.5318 28.7939 48.3241C28.4219 48.1363 28.1019 47.9026 27.8819 47.561C27.4739 46.9238 27.3939 46.1988 27.4559 45.4677C27.5019 44.9244 27.6419 44.4031 28.0559 43.9876C28.3459 43.696 28.6239 43.4263 29.0599 43.3724C29.2719 43.3464 29.4759 43.2266 29.6879 43.2146C29.9099 43.2026 30.1459 43.2406 30.3599 43.3065C30.7299 43.4223 31.0799 43.5841 31.3299 43.9077C31.5719 44.2233 31.7719 44.5449 31.7799 44.9644C31.7839 45.212 31.8519 45.4577 31.8659 45.7054C31.8779 45.9551 31.7379 46.0769 31.4859 46.0769C31.0139 46.0769 30.5419 46.0769 30.0719 46.0769V46.0789ZM29.7379 45.258C29.9939 45.258 30.2499 45.262 30.5039 45.258C31.0039 45.25 31.0559 45.3618 30.7799 44.8046C30.4259 44.0895 29.4159 43.9936 28.9339 44.5349C28.8039 44.6807 28.6999 44.8505 28.6039 45.0203C28.4779 45.242 28.4919 45.256 28.7539 45.258C29.0819 45.258 29.4079 45.258 29.7359 45.258H29.7379Z" fill="#00ACE4"/>
<path d="M118.752 46.0789C118.296 46.0789 117.84 46.0909 117.384 46.0729C117.172 46.0649 117.11 46.1668 117.166 46.3246C117.248 46.5543 117.348 46.786 117.488 46.9838C117.604 47.1495 117.772 47.2914 117.944 47.3992C118.436 47.7068 118.928 47.575 119.412 47.3573C119.52 47.3093 119.63 47.2594 119.73 47.1955C120.076 46.9798 120.368 47.1196 120.422 47.5291C120.452 47.7648 120.39 47.9485 120.152 48.0524C119.854 48.1822 119.57 48.358 119.262 48.4499C119.048 48.5138 118.802 48.4619 118.572 48.4719C118.126 48.4918 117.696 48.4619 117.288 48.2362C116.904 48.0244 116.642 47.7148 116.45 47.3433C116.118 46.7041 116.116 46.003 116.174 45.3139C116.222 44.7546 116.436 44.2233 116.868 43.8378C117.222 43.5202 117.648 43.3624 118.132 43.2685C118.554 43.1866 118.93 43.2845 119.284 43.4023C119.616 43.5122 119.944 43.7199 120.16 44.0515C120.526 44.6108 120.52 45.23 120.498 45.8552C120.49 46.0609 120.344 46.0729 120.196 46.0749C119.716 46.0789 119.236 46.0749 118.756 46.0749L118.752 46.0789ZM119.552 45.258C119.6 44.9244 119.264 44.3871 118.98 44.2992C118.664 44.2013 118.36 44.1614 118.022 44.2832C117.628 44.425 117.396 44.6807 117.26 45.0482C117.222 45.1521 117.23 45.258 117.392 45.258C118.108 45.258 118.824 45.258 119.552 45.258Z" fill="#00ACE4"/>
<path d="M82.812 45.8674C82.812 45.7156 82.806 45.5638 82.812 45.412C82.84 44.8027 83.024 44.2475 83.5 43.846C83.866 43.5364 84.28 43.2907 84.792 43.2867C84.904 43.2867 85.024 43.1908 85.128 43.2088C85.72 43.3127 86.336 43.3806 86.788 43.834C87.138 44.1855 87.372 44.607 87.41 45.1183C87.438 45.5019 87.526 45.8914 87.486 46.2689C87.416 46.926 87.276 47.5872 86.702 48.0206C86.364 48.2763 85.998 48.506 85.536 48.474C85.346 48.4601 85.152 48.4641 84.96 48.474C84 48.518 83.392 48.0186 82.982 47.2057C82.766 46.7762 82.808 46.3188 82.808 45.8654L82.812 45.8674ZM86.528 45.8714C86.488 45.7096 86.42 45.5378 86.41 45.364C86.396 45.0704 86.26 44.8367 86.082 44.633C85.962 44.4951 85.798 44.3513 85.63 44.3114C85.322 44.2395 84.978 44.1356 84.682 44.3074C84.43 44.4552 84.156 44.643 84.016 44.8846C83.822 45.2182 83.79 45.6197 83.808 46.0212C83.832 46.4946 83.954 46.8881 84.306 47.2416C84.768 47.705 85.616 47.6131 86.01 47.2416C86.406 46.8681 86.414 46.3667 86.528 45.8694V45.8714Z" fill="#00ACE4"/>
<path d="M90.658 48.4658C90.302 48.5117 89.928 48.4857 89.592 48.306C89.254 48.1262 88.948 47.9065 88.734 47.5649C88.35 46.9477 88.274 46.2706 88.316 45.5795C88.362 44.8444 88.606 44.1713 89.222 43.7138C89.532 43.4841 89.882 43.2924 90.296 43.2904C90.386 43.2904 90.476 43.2504 90.566 43.2305C90.612 43.2205 90.662 43.1965 90.704 43.2065C91.142 43.3243 91.62 43.3263 92.012 43.58C92.436 43.8537 92.724 44.2631 92.886 44.7325C93.05 45.2059 93.154 45.7113 93.068 46.2126C92.98 46.718 92.918 47.2333 92.58 47.6728C92.092 48.312 91.456 48.5437 90.662 48.4678L90.658 48.4658ZM90.574 47.5609C91.012 47.5749 91.324 47.475 91.556 47.2433C91.944 46.8538 92.032 46.3365 92.06 45.8132C92.068 45.6713 92.006 45.5255 91.976 45.3817C91.902 45.0042 91.712 44.7026 91.422 44.4449C91.264 44.3031 91.078 44.349 90.922 44.2811C90.556 44.1213 90.254 44.2811 89.984 44.4529C89.472 44.7785 89.346 45.3298 89.314 45.8851C89.3 46.1208 89.404 46.3684 89.468 46.6061C89.626 47.1814 90.112 47.5609 90.57 47.5609H90.574Z" fill="#00ACE4"/>
<path d="M22.6121 48.476C22.3861 48.476 22.1861 48.488 21.9901 48.47C21.9221 48.464 21.8401 48.3901 21.8041 48.3262C21.7461 48.2203 21.7221 48.0985 21.6761 47.9647C21.4381 48.0985 21.2361 48.2403 21.0121 48.3322C20.6021 48.5 20.1961 48.6038 19.7221 48.5C19.3881 48.4261 19.1361 48.2942 18.9201 48.0645C18.8341 47.9726 18.7881 47.8388 18.7421 47.717C18.5801 47.2915 18.5421 46.8601 18.7921 46.4586C18.9041 46.2808 19.0541 46.101 19.2321 45.9952C19.4661 45.8554 19.7541 45.8054 20.0001 45.6796C20.2961 45.5298 20.6021 45.5238 20.9181 45.5158C21.1201 45.5118 21.3221 45.4718 21.5221 45.4339C21.5581 45.4279 21.6061 45.362 21.6101 45.318C21.6541 44.9126 21.4781 44.599 21.1801 44.3413C21.1581 44.3213 21.1241 44.3033 21.0961 44.3033C20.6421 44.3073 20.1721 44.2155 19.7881 44.581C19.6841 44.6809 19.5301 44.7328 19.3901 44.7887C19.3421 44.8087 19.2481 44.7947 19.2161 44.7608C19.0921 44.6189 18.9521 44.4771 18.8801 44.3093C18.7981 44.1176 18.8801 43.9298 19.0761 43.8279C19.4101 43.6562 19.7361 43.4604 20.0861 43.3366C20.8981 43.0509 21.8921 43.2587 22.3721 44.1256C22.4701 44.2993 22.4781 44.5271 22.5141 44.7308C22.7241 45.8733 22.5561 47.0279 22.6081 48.1764C22.6121 48.2623 22.6081 48.3502 22.6081 48.478L22.6121 48.476ZM21.6061 46.3847C20.9921 46.2608 20.4521 46.4326 19.9181 46.6244C19.7061 46.7003 19.5981 47.0558 19.6581 47.2356C19.7521 47.5132 19.9941 47.6151 20.2181 47.6371C20.4521 47.661 20.7081 47.5771 20.9401 47.4973C21.1041 47.4393 21.2541 47.3195 21.3901 47.2056C21.4801 47.1297 21.5741 47.0219 21.5961 46.912C21.6301 46.7442 21.6061 46.5664 21.6061 46.3847Z" fill="#00ACE4"/>
<path d="M48.1701 48.4581C47.5881 48.4761 47.3261 48.6139 47.3101 47.8849C47.1541 47.9907 47.0041 48.0806 46.8661 48.1905C46.6361 48.3723 46.3941 48.5021 46.0861 48.4801C45.9921 48.4741 45.8941 48.566 45.7981 48.562C45.3861 48.55 44.9601 48.5101 44.6461 48.2304C44.4641 48.0686 44.3341 47.811 44.2621 47.5713C44.0581 46.8902 44.3101 46.209 44.9321 45.9094C45.3661 45.7017 45.8261 45.4939 46.3421 45.5119C46.6081 45.5219 46.8761 45.468 47.1401 45.434C47.1741 45.43 47.2341 45.3541 47.2261 45.3242C47.1801 45.1124 47.1381 44.8967 47.0581 44.699C46.9461 44.4233 46.7301 44.2755 46.4161 44.2975C46.3521 44.3015 46.2861 44.3095 46.2241 44.2975C45.8601 44.2256 45.5841 44.4293 45.3141 44.6091C44.9981 44.8208 44.7781 44.8428 44.6121 44.6211C44.3941 44.3274 44.4641 43.9299 44.7821 43.7422C45.1641 43.5185 45.5701 43.3806 46.0041 43.2668C46.4621 43.1469 46.8561 43.2568 47.2281 43.4066C47.6561 43.5784 47.9721 43.912 48.0541 44.4253C48.2681 45.7636 48.0601 47.1039 48.1641 48.4581H48.1701ZM47.1921 46.2949C46.7021 46.3708 46.2221 46.4367 45.7461 46.5206C45.5281 46.5586 45.2621 46.8442 45.2461 47.012C45.2141 47.3695 45.6701 47.7471 46.0301 47.6472C46.2601 47.5833 46.4881 47.4974 46.7061 47.3975C47.1461 47.1958 47.2981 46.8722 47.1921 46.2929V46.2949Z" fill="#00ACE4"/>
<path d="M107.414 43.3845C107.354 43.6002 107.324 43.7839 107.254 43.9497C107.016 44.503 106.758 45.0503 106.52 45.6036C106.344 46.0111 106.226 46.4465 106.006 46.826C105.862 47.0737 105.814 47.3454 105.69 47.5911C105.558 47.8507 105.446 48.1204 105.33 48.3861C105.132 48.8355 104.93 49.2849 104.744 49.7403C104.68 49.8941 104.594 49.96 104.426 49.952C104.172 49.9401 103.916 49.9481 103.638 49.9481C103.646 49.8662 103.638 49.8002 103.662 49.7483C103.836 49.3628 104.02 48.9813 104.196 48.5958C104.272 48.432 104.376 48.2702 104.398 48.0984C104.416 47.9546 104.348 47.7928 104.294 47.649C104.168 47.3134 104.036 46.9779 103.89 46.6503C103.69 46.2048 103.466 45.7694 103.266 45.324C103.018 44.7687 102.78 44.2074 102.546 43.6481C102.518 43.5802 102.532 43.4923 102.524 43.3825C102.858 43.3825 103.178 43.3565 103.49 43.3984C103.588 43.4124 103.686 43.5982 103.742 43.724C103.858 43.9777 103.938 44.2493 104.046 44.507C104.186 44.8386 104.342 45.1642 104.484 45.4958C104.626 45.8313 104.756 46.1729 104.898 46.5105C104.918 46.5604 104.972 46.5963 105.012 46.6383C105.044 46.6083 105.09 46.5844 105.106 46.5464C105.306 46.063 105.5 45.5757 105.702 45.0903C105.918 44.5709 106.132 44.0516 106.362 43.5383C106.394 43.4683 106.504 43.3984 106.584 43.3924C106.838 43.3745 107.094 43.3865 107.418 43.3865L107.414 43.3845Z" fill="#00ACE4"/>
<path d="M98.3521 47.7309C98.4481 47.5652 98.5081 47.3215 98.6521 47.2516C98.8161 47.1737 99.052 47.1697 99.248 47.3454C99.494 47.5671 99.82 47.5731 100.144 47.5811C100.388 47.5871 100.586 47.5052 100.778 47.3814C101.074 47.1916 101.04 46.8041 100.686 46.6244C100.44 46.4985 100.152 46.4566 99.8961 46.3487C99.4341 46.155 98.9341 46.0131 98.6281 45.5677C98.5741 45.4878 98.534 45.3839 98.526 45.2881C98.492 44.8446 98.408 44.3892 98.698 43.9897C99.02 43.5463 99.4481 43.3446 100.002 43.2766C100.542 43.2107 101.016 43.3326 101.472 43.5563C101.866 43.752 101.924 43.9757 101.686 44.3692C101.58 44.543 101.428 44.6029 101.218 44.4931C100.906 44.3293 100.586 44.1555 100.212 44.2054C99.996 44.2354 99.784 44.2833 99.626 44.4611C99.436 44.6729 99.4341 44.9066 99.6781 45.0364C99.9301 45.1702 100.216 45.2421 100.482 45.348C101.004 45.5577 101.59 45.6776 101.85 46.2748C101.874 46.3307 101.902 46.3927 101.898 46.4506C101.874 46.8421 101.872 47.2396 101.798 47.6211C101.764 47.7949 101.612 47.9866 101.46 48.0885C101.158 48.2922 100.84 48.49 100.444 48.474C100.334 48.47 100.218 48.5619 100.108 48.5559C99.5121 48.5239 98.948 48.3801 98.46 48.0226C98.404 47.9826 98.414 47.8528 98.394 47.7649C98.382 47.7529 98.368 47.7389 98.356 47.7269L98.3521 47.7309Z" fill="#00ACE4"/>
<path d="M111.434 46.862C111.45 47.2355 111.398 47.5871 111.156 47.8847C110.896 48.2063 110.568 48.424 110.146 48.4759C110.008 48.4939 109.874 48.5279 109.736 48.5538C109.698 48.5618 109.656 48.5718 109.618 48.5658C109.296 48.5079 108.97 48.4639 108.656 48.3761C108.464 48.3221 108.3 48.1803 108.112 48.1104C107.918 48.0385 107.876 47.8967 107.922 47.7389C107.974 47.5631 108.036 47.3154 108.168 47.2535C108.33 47.1776 108.566 47.1656 108.764 47.3454C109.006 47.5651 109.332 47.605 109.656 47.5711C109.826 47.5531 110.006 47.5411 110.158 47.4772C110.356 47.3933 110.518 47.2036 110.482 46.9978C110.456 46.85 110.292 46.6842 110.146 46.6103C109.856 46.4645 109.528 46.3926 109.23 46.2608C108.934 46.1289 108.632 45.9871 108.372 45.7974C108.108 45.6056 108.03 45.288 108.01 44.9684C107.992 44.6688 108.046 44.3872 108.164 44.1015C108.274 43.8379 108.472 43.698 108.684 43.5542C108.936 43.3864 109.216 43.3345 109.516 43.2806C110.056 43.1847 110.52 43.3385 110.986 43.5542C111.222 43.6641 111.36 43.8179 111.326 44.1135C111.29 44.4291 111 44.6169 110.706 44.479C110.408 44.3392 110.116 44.1794 109.768 44.2054C109.482 44.2274 109.22 44.3192 109.064 44.5609C109.008 44.6488 109.026 44.8586 109.094 44.9365C109.32 45.1921 109.656 45.2541 109.97 45.3579C110.514 45.5377 111.11 45.6715 111.358 46.2827C111.428 46.4585 111.41 46.6682 111.432 46.864L111.434 46.862Z" fill="#00ACE4"/>
<path d="M58.716 47.2757C59.132 47.0959 59.372 47.3536 59.648 47.4914C60.046 47.6912 60.724 47.5833 61.034 47.2697C61.188 47.1119 61.152 46.9262 61.02 46.7584C60.788 46.4628 60.434 46.4727 60.138 46.3449C59.786 46.1911 59.408 46.0772 59.084 45.8795C58.58 45.5719 58.53 44.6431 58.78 44.1417C58.98 43.7402 59.292 43.4746 59.744 43.3807C59.946 43.3388 60.144 43.2688 60.344 43.2149C60.374 43.2069 60.41 43.1989 60.438 43.2069C60.838 43.3288 61.284 43.3088 61.642 43.5645C61.796 43.6743 61.982 43.7442 61.976 44.0199C61.97 44.2756 61.836 44.4354 61.668 44.5093C61.548 44.5612 61.34 44.4713 61.194 44.3994C60.748 44.1857 60.138 44.0598 59.728 44.5113C59.588 44.6651 59.572 44.8308 59.728 44.9447C59.912 45.0785 60.132 45.1664 60.342 45.2603C60.754 45.4421 61.184 45.5899 61.584 45.7956C62.032 46.0273 62.136 46.4787 62.106 46.9222C62.078 47.3276 62.034 47.7751 61.662 48.0467C61.362 48.2664 61.07 48.5261 60.642 48.4822C60.51 48.4682 60.366 48.5741 60.232 48.5621C59.71 48.5141 59.194 48.4322 58.75 48.1166C58.694 48.0767 58.63 48.0467 58.512 47.9788C58.582 47.7371 58.658 47.4815 58.716 47.2797V47.2757Z" fill="#00ACE4"/>
<path d="M132.868 44.0135C132.844 44.4589 132.538 44.6527 132.152 44.447C131.862 44.2912 131.566 44.1713 131.232 44.2073C130.968 44.2352 130.712 44.3231 130.576 44.5608C130.522 44.6547 130.536 44.8684 130.606 44.9343C130.756 45.0742 130.954 45.196 131.152 45.2499C131.668 45.3917 132.184 45.5436 132.602 45.8811C132.764 46.013 132.852 46.2666 132.91 46.4824C132.96 46.6681 132.904 46.8798 132.924 47.0776C132.98 47.6788 132.656 48.0384 132.172 48.306C131.968 48.4199 131.762 48.4958 131.516 48.4818C131.374 48.4738 131.228 48.5717 131.086 48.5617C130.518 48.5237 129.974 48.3759 129.514 48.0324C129.436 47.9724 129.432 47.7467 129.466 47.6169C129.576 47.1914 129.914 47.0956 130.28 47.3612C130.566 47.569 130.896 47.5809 131.232 47.575C131.434 47.571 131.626 47.559 131.788 47.4172C131.936 47.2873 132.092 47.1435 132.006 46.9318C131.928 46.74 131.792 46.5822 131.572 46.5103C131.086 46.3485 130.592 46.1967 130.124 45.989C129.87 45.8751 129.71 45.6374 129.606 45.3458C129.418 44.8205 129.518 44.3531 129.792 43.9116C129.88 43.7678 130.054 43.6759 130.194 43.5681C130.444 43.3743 130.742 43.3444 131.042 43.2884C131.696 43.1686 132.248 43.3763 132.764 43.7359C132.832 43.7838 132.836 43.9216 132.868 44.0195V44.0135Z" fill="#00ACE4"/>
<path d="M23.5061 43.5505C23.7201 43.5225 23.9121 43.4926 24.1061 43.4746C24.2681 43.4606 24.3461 43.3827 24.3621 43.2229C24.3981 42.8554 24.4381 42.4879 24.4841 42.1203C24.5241 41.8007 24.5741 41.7588 24.8841 41.7588C25.0021 41.7588 25.1221 41.7588 25.2761 41.7588C25.2761 42.2282 25.2941 42.6796 25.2681 43.131C25.2561 43.3428 25.3061 43.3987 25.5061 43.3927C25.8721 43.3807 26.2401 43.3887 26.6401 43.3887C26.6401 43.6963 26.6461 43.9879 26.6321 44.2796C26.6321 44.3175 26.5221 44.3794 26.4621 44.3814C26.1501 44.3914 25.8381 44.3854 25.5261 44.3854C25.4481 44.3854 25.3701 44.3854 25.2861 44.3854C25.2741 44.4394 25.2601 44.4673 25.2601 44.4973C25.2601 45.3742 25.2601 46.249 25.2581 47.1259C25.2581 47.3776 25.6201 47.6213 25.8441 47.5114C25.8861 47.4895 25.9321 47.4715 25.9741 47.4515C26.4261 47.2258 26.7481 47.4355 26.7301 47.9549C26.7281 48.0388 26.6841 48.1526 26.6221 48.1965C26.4681 48.3004 26.2941 48.4263 26.1221 48.4382C25.8221 48.4582 25.5361 48.6959 25.2141 48.4882C25.0921 48.4103 24.9181 48.4183 24.7841 48.3524C24.3941 48.1566 24.2861 47.7931 24.2821 47.3956C24.2741 46.4867 24.2701 45.5759 24.2861 44.6671C24.2901 44.4274 24.2121 44.3535 23.9881 44.3854C23.9261 44.3954 23.8581 44.3974 23.7961 44.3834C23.6201 44.3415 23.4681 44.2856 23.5021 44.0459C23.5241 43.8921 23.5061 43.7303 23.5061 43.5505Z" fill="#00ACE4"/>
<path d="M112.988 44.385C112.798 44.385 112.64 44.393 112.484 44.383C112.312 44.373 112.194 44.2991 112.218 44.0974C112.226 44.0275 112.218 43.9536 112.218 43.8817C112.218 43.5441 112.242 43.5141 112.58 43.4722C112.704 43.4562 112.9 43.4982 112.942 43.4343C113.03 43.3004 113.056 43.1167 113.076 42.9489C113.114 42.6473 113.11 42.3377 113.17 42.04C113.192 41.9322 113.332 41.8103 113.444 41.7684C113.57 41.7204 113.726 41.7584 113.9 41.7584C113.9 42.2178 113.914 42.6632 113.894 43.1047C113.884 43.3404 113.96 43.4063 114.188 43.3903C114.49 43.3703 114.796 43.3903 115.1 43.3823C115.236 43.3783 115.288 43.4283 115.284 43.5621C115.278 43.7618 115.276 43.9616 115.284 44.1593C115.29 44.3231 115.23 44.389 115.06 44.385C114.686 44.377 114.312 44.383 113.922 44.383C113.914 44.4629 113.902 44.5229 113.902 44.5848C113.902 45.3338 113.894 46.0849 113.906 46.8339C113.908 46.9917 113.954 47.1635 114.032 47.2993C114.168 47.537 114.412 47.573 114.674 47.4551C114.814 47.3932 115.03 47.2793 115.102 47.3333C115.254 47.4471 115.358 47.6449 115.434 47.8286C115.542 48.0883 115.308 48.2041 115.142 48.2781C114.86 48.4039 114.554 48.5397 114.256 48.5457C113.846 48.5537 113.418 48.4538 113.156 48.0823C113.056 47.9385 112.998 47.7347 112.994 47.559C112.978 46.6022 112.986 45.6434 112.986 44.6866C112.986 44.6008 112.986 44.5129 112.986 44.381L112.988 44.385Z" fill="#00ACE4"/>
<path d="M33.0359 43.3827C33.2679 43.3827 33.4819 43.3807 33.6959 43.3827C33.8599 43.3847 33.9439 43.4666 33.9359 43.6384C33.9299 43.7722 33.9359 43.906 33.9359 44.0998C34.0179 44.0279 34.0759 43.9979 34.0999 43.952C34.3519 43.4386 34.8539 43.3148 35.3359 43.2209C35.5399 43.181 35.7839 43.3208 36.0019 43.3967C36.0439 43.4107 36.0799 43.5125 36.0759 43.5705C36.0619 43.8561 36.0339 44.1417 36.0059 44.4793C35.7819 44.4513 35.6039 44.4453 35.4319 44.4054C35.0839 44.3275 34.6279 44.4573 34.4079 44.7929C34.3479 44.8848 34.2499 44.9527 34.1919 45.0466C34.0659 45.2503 34.0099 45.47 34.0159 45.7197C34.0319 46.5407 34.0099 47.3616 34.0279 48.1826C34.0339 48.4382 33.9519 48.5001 33.7159 48.4802C33.4959 48.4602 33.2719 48.4762 33.0359 48.4762V43.3847V43.3827Z" fill="#00ACE4"/>
<path d="M52.5279 44.4192H51.2579C51.2099 44.4911 51.1819 44.565 51.1279 44.607C50.7679 44.8886 50.5319 45.2182 50.5439 45.7096C50.5639 46.6184 50.5499 47.5272 50.5499 48.4541H49.5759V43.3825C49.8099 43.3825 50.0419 43.3606 50.2679 43.3945C50.3479 43.4065 50.4439 43.5383 50.4699 43.6322C50.5039 43.7621 50.4779 43.9059 50.4779 44.0936C50.5539 44.0317 50.6139 44.0037 50.6399 43.9578C50.8579 43.5803 51.1959 43.4085 51.6059 43.2747C51.9419 43.1668 52.2019 43.2447 52.4779 43.3706C52.5399 43.3985 52.6059 43.5044 52.6019 43.5723C52.5899 43.8579 52.5539 44.1436 52.5259 44.4212L52.5279 44.4192Z" fill="#00ACE4"/>
<path d="M95.2781 48.4622H94.3201V41.1655H95.2781V48.4622Z" fill="#00ACE4"/>
<path d="M117.934 7.88012C117.988 8.51131 117.546 8.79295 117.126 8.79295C116.686 8.79295 116.294 8.48135 116.312 7.87213C116.33 7.28089 116.586 7.0332 117.228 7.0332C117.694 7.0332 117.934 7.32283 117.934 7.88212V7.88012Z" fill="#00ACE4"/>
</g>
<defs>
<clipPath id="clip0_1_788">
<rect width="144" height="50" fill="white"/>
</clipPath>
</defs>
</svg>
