<svg width="64" height="64" viewBox="0 0 64 64" fill="none" xmlns="http://www.w3.org/2000/svg">
<rect width="64" height="64" rx="32" fill="#48C95F"/>
<path d="M44.6829 19.2999C41.5219 16.1499 37.3073 14.3999 32.8585 14.3999C23.6098 14.3999 16.1171 21.8666 16.1171 31.0832C16.1171 33.9999 16.9366 36.9166 18.3415 39.3666L16 47.9999L24.8976 45.6666C27.3561 46.9499 30.0488 47.6499 32.8585 47.6499C42.1073 47.6499 49.6 40.1832 49.6 30.9666C49.4829 26.6499 47.8439 22.4499 44.6829 19.2999ZM40.9366 37.0332C40.5854 37.9666 38.9463 38.8999 38.1268 39.0166C37.4244 39.1332 36.4878 39.1332 35.5512 38.8999C34.9659 38.6666 34.1463 38.4332 33.2098 37.9666C28.9951 36.2166 26.3024 32.0166 26.0683 31.6666C25.8341 31.4332 24.3122 29.4499 24.3122 27.3499C24.3122 25.2499 25.3659 24.3166 25.7171 23.8499C26.0683 23.3832 26.5366 23.3832 26.8878 23.3832C27.122 23.3832 27.4732 23.3832 27.7073 23.3832C27.9415 23.3832 28.2927 23.2666 28.6439 24.0832C28.9951 24.8999 29.8146 26.9999 29.9317 27.1166C30.0488 27.3499 30.0488 27.5832 29.9317 27.8166C29.8146 28.0499 29.6976 28.2832 29.4634 28.5166C29.2293 28.7499 28.9951 29.0999 28.878 29.2166C28.6439 29.4499 28.4098 29.6832 28.6439 30.0332C28.878 30.4999 29.6976 31.7832 30.9854 32.9499C32.6244 34.3499 33.9122 34.8166 34.3805 35.0499C34.8488 35.2832 35.0829 35.1666 35.3171 34.9332C35.5512 34.6999 36.3707 33.7666 36.6049 33.2999C36.839 32.8332 37.1902 32.9499 37.5415 33.0666C37.8927 33.1832 40 34.2332 40.3512 34.4666C40.8195 34.6999 41.0537 34.8166 41.1707 34.9332C41.2878 35.2832 41.2878 36.0999 40.9366 37.0332Z" fill="white"/>
</svg>
