<svg width="199" height="70" viewBox="0 0 199 70" fill="none" xmlns="http://www.w3.org/2000/svg">
<g clip-path="url(#clip0_1_496)">
<path d="M0 47.5388C0.04975 47.4941 0.121611 47.4549 0.146486 47.399C0.458806 46.6551 0.762833 45.9085 1.07239 45.1618C1.26586 44.6948 1.47039 44.2334 1.66386 43.7636C2.0591 42.8073 2.45157 41.8481 2.84404 40.8889C3.24204 39.9214 3.63728 38.9538 4.04081 37.989C4.38906 37.1529 4.75112 36.3252 5.09661 35.489C5.46697 34.5914 5.81799 33.6825 6.18558 32.7849C6.40946 32.2396 6.65268 31.7027 6.88761 31.163C7.27732 30.2597 7.67532 29.3593 8.05674 28.4532C8.46026 27.4997 8.84721 26.5405 9.24244 25.5841C9.63215 24.6361 10.0163 23.6881 10.406 22.7401C10.804 21.7726 11.1993 20.8022 11.6083 19.8403C11.8598 19.2502 12.0975 18.6518 12.4126 18.0981C12.6945 17.6031 13.134 17.3291 13.7476 17.2424C14.1594 17.1837 14.5381 17.2424 14.9195 17.2899C15.2097 17.3263 15.4778 17.4521 15.7182 17.7374C15.8868 17.9359 16.1024 18.1093 16.2047 18.3665C16.3871 18.8224 16.5391 19.2866 16.7243 19.7424C16.8293 20.0025 16.9813 20.2402 17.0947 20.4946C17.3185 21.0092 17.5258 21.5321 17.7414 22.0494C17.8768 22.371 18.0206 22.6898 18.1587 23.0114C18.6452 24.1467 19.1372 25.2793 19.6181 26.4146C19.9359 27.1669 20.2427 27.9247 20.555 28.6825C20.9447 29.6305 21.3345 30.5813 21.7269 31.5293C22.1277 32.4997 22.5312 33.47 22.9347 34.4376C23.1697 34.9997 23.424 35.5561 23.6506 36.121C23.8358 36.5852 23.9767 37.0662 24.1592 37.5304C24.2973 37.8912 24.4715 38.2351 24.6235 38.5903C24.9773 39.4208 25.3338 40.2513 25.6793 41.0875C26.0441 41.9739 26.3924 42.866 26.7572 43.7525C27.0032 44.3453 27.2713 44.9297 27.5173 45.5226C27.8572 46.3475 28.2387 47.1585 28.4957 48.0114C28.609 48.3833 28.457 48.8335 28.4321 49.2502C28.41 49.611 28.2469 49.8822 28.0203 50.1591C27.7246 50.5198 27.3653 50.7183 26.9507 50.8861C26.022 51.2608 24.4936 50.5869 24.1674 49.6333C23.9298 48.9342 23.6091 48.2631 23.3327 47.578C23.0978 47.0019 22.8712 46.4202 22.6418 45.8414C22.2382 44.8263 21.8375 43.8084 21.4312 42.7961C21.1465 42.0886 20.8425 41.3867 20.5606 40.6764C20.2593 39.9186 19.9802 39.1523 19.6844 38.3917C19.4937 37.9051 19.2781 37.4297 19.0874 36.9432C18.8083 36.2357 18.5429 35.5226 18.2638 34.8151C18.0758 34.3397 17.8658 33.8727 17.6778 33.3973C17.3932 32.6702 17.1278 31.9376 16.8404 31.2105C16.6967 30.8442 16.5142 30.489 16.3705 30.1227C16.0112 29.2111 15.6685 28.2938 15.3037 27.385C14.983 26.588 14.6431 25.7994 14.2948 24.9633C14.0986 25.4359 13.9162 25.8554 13.7448 26.2804C13.5679 26.7139 13.3993 27.1529 13.228 27.5891C12.841 28.5707 12.4624 29.555 12.0671 30.5338C11.8294 31.1182 11.5613 31.6915 11.3264 32.2759C11.0528 32.9527 10.8068 33.6406 10.5359 34.3173C10.301 34.9074 10.044 35.4862 9.80351 36.0735C9.48843 36.8481 9.1844 37.6283 8.86932 38.4001C8.6261 38.9957 8.36353 39.5858 8.12307 40.1842C7.84392 40.8805 7.58411 41.5824 7.31325 42.2787C7.21375 42.5332 7.09214 42.7821 6.98988 43.0366C6.62781 43.9258 6.27679 44.8207 5.91196 45.71C5.48632 46.739 5.0441 47.7625 4.61569 48.7916C4.47474 49.1328 4.39458 49.5047 4.22046 49.8291C4.09885 50.0556 3.89156 50.2541 3.6815 50.4135C3.20611 50.7715 2.67268 51.0315 2.06462 50.9784C1.28521 50.9113 0.652278 50.5701 0.268097 49.8403C0.190708 49.6921 0.0939722 49.555 0.00276389 49.4124C0.00276389 48.786 0.00276389 48.1596 0.00276389 47.536L0 47.5388Z" fill="white"/>
<path d="M129.085 -0.000266534C129.123 0.0444762 129.157 0.117183 129.203 0.128369C129.894 0.290561 130.483 0.634521 131.044 1.06797C131.65 1.53497 132.061 2.15018 132.457 2.77658C132.669 3.11495 132.722 3.55398 132.882 3.9343C133.272 4.85991 133.103 5.83027 133.123 6.78385C133.131 7.11662 133.09 7.46897 132.984 7.78217C132.791 8.36942 132.589 8.96785 132.291 9.50477C131.99 10.0445 131.605 10.5506 131.061 10.8918C130.671 11.1351 130.306 11.4175 129.908 11.6412C129.461 11.8929 128.963 11.9824 128.463 12.0943C127.902 12.2229 127.354 12.167 126.802 12.1977C126.039 12.2397 125.317 12.016 124.64 11.7056C124.074 11.4455 123.491 11.1351 123.051 10.7044C122.504 10.1703 121.99 9.56629 121.766 8.7777C121.644 8.35264 121.434 7.95275 121.335 7.5249C121.241 7.11103 121.199 6.67759 121.202 6.25253C121.21 5.61495 121.197 4.95779 121.34 4.34537C121.514 3.60991 121.771 2.88564 122.222 2.25085C122.722 1.54895 123.344 0.981277 124.068 0.539443C124.378 0.352082 124.748 0.26819 125.088 0.128369C125.146 0.103201 125.188 0.0416798 125.237 -0.00585938C126.52 -0.00585938 127.802 -0.00585938 129.085 -0.00585938V-0.000266534ZM127.178 10.4136C127.186 10.3828 127.191 10.3521 127.2 10.3213C127.683 10.2962 128.145 10.3073 128.637 10.1004C129.543 9.71729 130.29 9.19996 130.804 8.35264C130.867 8.24917 130.975 8.16528 131.011 8.05622C131.152 7.6032 131.26 7.139 131.406 6.68877C131.658 5.90577 131.462 5.15633 131.205 4.43765C130.942 3.6994 130.447 3.11215 129.864 2.57244C129.292 2.04112 128.604 1.78665 127.904 1.69716C126.89 1.56573 125.867 1.6636 124.953 2.25924C124.331 2.66472 123.795 3.14011 123.482 3.82244C123.292 4.23351 123.104 4.66416 123.037 5.106C122.946 5.69045 122.858 6.31685 122.979 6.87893C123.109 7.48016 123.449 8.04783 123.761 8.59034C124.168 9.29783 124.817 9.76483 125.552 10.0501C126.066 10.2514 126.636 10.299 127.183 10.4136H127.178Z" fill="white"/>
<path d="M107.991 0C108.013 0.0363535 108.029 0.103468 108.054 0.10906C108.74 0.209732 109.234 0.673937 109.779 1.03747C110.257 1.35347 110.229 2.30705 109.934 2.63982C109.693 2.90828 108.991 2.91387 108.704 2.60626C108.234 2.10291 107.645 1.77573 107.01 1.69463C106.374 1.61353 105.708 1.59116 105.055 1.81208C104.298 2.06655 103.624 2.44127 103.14 3.06208C102.761 3.54866 102.471 4.11913 102.222 4.6868C102.059 5.05313 101.963 5.48658 101.974 5.88367C101.988 6.39262 102.093 6.91275 102.247 7.39653C102.482 8.1264 102.916 8.7472 103.472 9.27852C103.933 9.71756 104.478 9.99161 105.072 10.1985C105.688 10.4139 106.327 10.3663 106.929 10.288C107.413 10.2265 107.866 9.90492 108.331 9.69239C108.364 9.67561 108.386 9.60011 108.386 9.54978C108.389 8.84787 108.386 8.14597 108.386 7.39374C107.731 7.39374 107.104 7.39653 106.479 7.39374C106.363 7.39374 106.241 7.37136 106.128 7.33501C105.641 7.17841 105.666 6.78132 105.647 6.36465C105.628 5.94239 105.813 5.71868 106.155 5.57606C106.241 5.53971 106.346 5.53412 106.443 5.53412C107.338 5.53132 108.234 5.53691 109.129 5.52852C109.82 5.52293 110.086 5.88087 110.102 6.44016C110.141 7.70134 110.141 8.96532 110.108 10.2265C110.097 10.6935 109.815 11.0291 109.345 11.2025C109.118 11.2864 108.95 11.5352 108.723 11.6275C108.275 11.8065 107.794 11.9016 107.344 12.0749C106.752 12.3042 106.147 12.2064 105.553 12.184C105.102 12.1672 104.657 11.9938 104.215 11.8708C103.682 11.7198 103.157 11.5213 102.75 11.1298C102.245 10.6432 101.736 10.1482 101.313 9.59172C101.015 9.20022 100.827 8.71365 100.647 8.24944C100.501 7.86913 100.384 7.45805 100.354 7.05257C100.307 6.37304 100.285 5.68512 100.36 5.01119C100.418 4.47987 100.636 3.96812 100.78 3.44799C101.004 2.63423 101.504 1.98825 102.101 1.43736C102.565 1.00671 103.016 0.525727 103.679 0.37472C103.892 0.327181 104.091 0.212528 104.29 0.120246C104.315 0.10906 104.318 0.0475391 104.329 0.00838926C105.545 0.00838926 106.761 0.00838926 107.977 0.00838926L107.991 0Z" fill="white"/>
<path d="M117.012 0C117.048 0.0447427 117.081 0.120246 117.125 0.128635C118.059 0.33557 118.759 0.855705 119.262 1.68065C119.621 2.27349 119.781 2.89989 119.734 3.58781C119.721 3.80034 119.721 4.01286 119.734 4.22539C119.795 5.2377 119.323 6.00392 118.634 6.66667C118.493 6.80369 118.308 6.89318 118.167 7.02741C118.115 7.07774 118.082 7.22595 118.117 7.27908C118.543 7.9698 118.985 8.64653 119.417 9.33445C119.679 9.75392 119.939 10.1734 120.179 10.604C120.323 10.8641 120.168 11.6751 119.964 11.9016C119.643 12.2511 118.875 12.1029 118.607 11.6471C118.328 11.1689 118.012 10.7103 117.769 10.2153C117.551 9.7679 117.194 9.42394 116.982 8.97092C116.769 8.5151 116.467 8.10123 116.18 7.68736C116.114 7.59228 115.945 7.52517 115.821 7.52237C115.323 7.5028 114.826 7.52797 114.328 7.51119C114.085 7.5028 114.032 7.59788 114.035 7.82439C114.044 8.9877 114.008 10.151 114.052 11.3087C114.079 11.9855 113.424 12.212 112.927 12.0246C112.573 11.8932 112.421 11.6583 112.424 11.2416C112.443 7.78803 112.44 4.33725 112.424 0.883669C112.424 0.520134 112.529 0.246085 112.767 0.00279642C114.182 0 115.597 0 117.012 0ZM114.038 3.78076C114.038 4.30649 114.046 4.83221 114.032 5.35515C114.027 5.57606 114.099 5.64877 114.317 5.64318C114.848 5.6292 115.378 5.63758 115.909 5.64038C116.708 5.64318 117.374 5.41667 117.824 4.68121C118.142 4.16387 118.253 3.66331 117.943 3.11521C117.852 2.95302 117.739 2.80201 117.642 2.64262C117.36 2.17282 116.912 1.93792 116.404 1.90157C115.71 1.85403 115.014 1.89597 114.317 1.88199C114.099 1.87919 114.027 1.94911 114.032 2.17002C114.046 2.70694 114.038 3.24105 114.035 3.77796L114.038 3.78076Z" fill="white"/>
<path d="M181.09 -0.000133267C181.283 0.125706 181.488 0.237562 181.67 0.377384C182.016 0.64584 182.381 0.900314 182.674 1.21911C182.911 1.47638 183.116 1.79797 183.229 2.12794C183.32 2.3936 183.301 2.72078 183.251 3.00602C183.193 3.336 182.892 3.43946 182.599 3.46184C182.248 3.4898 181.911 3.36116 181.759 3.04237C181.388 2.26497 180.731 1.84271 179.968 1.6917C179.376 1.57425 178.735 1.63298 178.119 1.83152C177.627 1.99092 177.256 2.2426 177.024 2.69841C176.842 3.05356 176.936 3.60445 177.187 3.90367C177.718 4.53007 178.39 4.80132 179.199 4.82649C179.562 4.83767 179.915 5.01385 180.277 5.03622C180.825 5.06978 181.3 5.2879 181.773 5.52C182.527 5.89192 183.069 6.51832 183.304 7.29013C183.495 7.91653 183.544 8.6436 183.439 9.28958C183.229 10.5871 182.406 11.3981 181.176 11.8763C180.25 12.237 179.307 12.265 178.373 12.1699C177.757 12.1084 177.138 11.8399 176.577 11.5519C175.949 11.2275 175.424 10.7689 175.043 10.1089C174.797 9.68387 174.885 9.30076 174.868 8.89808C174.863 8.78063 175.037 8.60166 175.17 8.54293C175.687 8.31083 176.281 8.54852 176.568 9.06306C176.858 9.5804 177.326 9.84047 177.845 10.0921C178.531 10.4249 179.235 10.3634 179.915 10.2907C180.675 10.2096 181.361 9.79852 181.687 9.05747C181.861 8.66038 181.767 8.18499 181.463 7.81866C181.33 7.65647 181.167 7.51664 181.021 7.36564C180.681 7.01609 180.272 6.86228 179.788 6.80356C179.208 6.73085 178.633 6.58823 178.064 6.44002C177.66 6.33376 177.243 6.2247 176.883 6.02336C176.195 5.64025 175.612 5.07817 175.358 4.33152C175.131 3.66597 175.131 2.94729 175.289 2.21743C175.465 1.38689 175.999 0.894721 176.624 0.455683C176.856 0.293491 177.16 0.240359 177.431 0.131298C177.489 0.106131 177.53 0.0446095 177.577 -0.00292969C178.749 -0.00292969 179.921 -0.00292969 181.093 -0.00292969L181.09 -0.000133267Z" fill="white"/>
<path d="M169.349 0C169.849 0.738255 170.148 1.566 170.433 2.40492C170.585 2.85515 170.833 3.27181 171.016 3.71085C171.466 4.80984 171.903 5.91443 172.351 7.01342C172.492 7.35738 172.655 7.69295 172.801 8.03412C173.152 8.84787 173.506 9.66163 173.846 10.481C174.064 11.0095 173.943 11.6387 173.586 11.9519C173.279 12.2204 172.541 12.0945 172.378 11.7198C172.121 11.1298 171.884 10.5313 171.668 9.9245C171.533 9.54698 171.43 9.44631 171.035 9.44631C169.642 9.44631 168.249 9.44631 166.856 9.44631C166.298 9.44631 166.278 9.46309 166.071 9.97483C165.875 10.4586 165.673 10.9424 165.477 11.4262C165.259 11.9603 165.037 12.1253 164.529 12.0638C164.299 12.0358 164.062 11.9715 163.957 11.6946C163.755 11.1605 163.816 10.6628 164.045 10.1482C164.54 9.03244 165.013 7.90548 165.485 6.77852C165.886 5.82494 166.284 4.86857 166.668 3.9066C166.967 3.15996 167.221 2.39374 167.536 1.65548C167.776 1.08781 168.083 0.550895 168.362 0C168.694 0 169.026 0 169.357 0L169.349 0ZM168.86 3.17394C168.224 4.75391 167.619 6.2528 167 7.79083C168.216 7.79083 169.374 7.79083 170.532 7.78244C170.582 7.78244 170.69 7.63143 170.673 7.58949C170.485 7.06096 170.28 6.53803 170.076 6.0151C169.766 5.22371 169.457 4.43512 169.139 3.64933C169.075 3.49553 168.97 3.3585 168.863 3.17673L168.86 3.17394Z" fill="white"/>
<path d="M199 11.734C198.936 11.7704 198.862 11.7928 198.809 11.8403C198.356 12.2598 197.676 12.1535 197.419 11.5858C197.17 11.0405 196.96 10.4757 196.756 9.91078C196.642 9.59758 196.501 9.427 196.123 9.43539C194.721 9.46056 193.317 9.46335 191.916 9.43539C191.549 9.427 191.366 9.53606 191.239 9.87722C191.045 10.3974 190.766 10.8895 190.609 11.4181C190.518 11.7257 190.366 11.8851 190.106 12.0081C189.567 12.2654 188.962 11.8878 188.928 11.2866C188.901 10.8336 189.028 10.4281 189.207 10.0226C189.564 9.21447 189.898 8.39512 190.244 7.58136C190.675 6.55787 191.112 5.53438 191.54 4.5081C191.969 3.48461 192.391 2.45552 192.82 1.43203C193.019 0.953846 193.223 0.481251 193.428 0.00585938C193.782 0.00585938 194.136 0.00585938 194.489 0.00585938C194.597 0.15407 194.735 0.291094 194.81 0.453287C195.006 0.892325 195.172 1.34255 195.352 1.78998C195.487 2.12275 195.634 2.45273 195.758 2.7883C196.02 3.49579 196.258 4.21447 196.537 4.91358C196.681 5.27432 196.897 5.60429 197.065 5.95944C197.275 6.40407 197.483 6.85429 197.668 7.31011C197.999 8.12666 198.306 8.95161 198.638 9.76816C198.735 10.0087 198.878 10.2324 199 10.4617V11.7368V11.734ZM195.816 7.76593C195.553 6.67253 194.144 3.34758 193.939 3.26649C193.34 4.75698 192.737 6.24747 192.123 7.76593H195.816Z" fill="white"/>
<path d="M136.779 0C137.147 0.385906 137.152 0.864094 137.15 1.36186C137.136 3.60738 137.119 5.85291 137.155 8.09843C137.166 8.83949 137.595 9.42114 138.197 9.83781C138.985 10.3803 139.875 10.5229 140.806 10.4474C141.049 10.4279 141.298 10.3719 141.53 10.288C142.324 10.0028 142.926 9.48825 143.25 8.69127C143.363 8.41723 143.462 8.11242 143.462 7.81879C143.479 5.59564 143.473 3.37248 143.468 1.14933C143.468 0.724273 143.432 0.302013 143.811 0H144.739C145.101 0.296421 145.079 0.701902 145.079 1.11857C145.071 3.64094 145.079 6.16611 145.071 8.68848C145.071 9.28412 144.853 9.83221 144.507 10.3048C144.242 10.6683 143.954 11.0375 143.603 11.3087C143.227 11.5996 142.78 11.8093 142.34 12.005C142.08 12.1197 141.782 12.156 141.497 12.2008C141.121 12.2567 140.74 12.3322 140.367 12.3182C139.333 12.2763 138.305 12.1784 137.401 11.594C136.768 11.1829 136.24 10.6683 135.862 10C135.511 9.3764 135.386 8.71644 135.392 8.00336C135.408 5.76902 135.4 3.53747 135.395 1.30313C135.395 0.824944 135.345 0.34396 135.784 0.00559284H136.779V0Z" fill="white"/>
<path d="M152.766 0C152.807 0.0447427 152.843 0.120246 152.89 0.128635C153.603 0.240492 154.175 0.623602 154.645 1.14094C155.076 1.61913 155.361 2.17282 155.516 2.83277C155.668 3.49273 155.657 4.1443 155.596 4.77908C155.535 5.3915 155.339 5.99553 154.924 6.52125C154.587 6.9491 154.2 7.29027 153.755 7.55034C153.238 7.84955 152.652 7.98658 152.047 7.98937C151.317 7.99217 150.588 7.99776 149.858 7.98378C149.637 7.98098 149.573 8.05369 149.576 8.27181C149.584 9.27852 149.551 10.2852 149.59 11.2891C149.618 11.9855 148.985 12.2036 148.479 12.0358C148.103 11.91 147.973 11.6862 147.973 11.2752C147.973 7.87752 147.976 4.48266 147.97 1.08501C147.97 0.676734 147.954 0.279642 148.319 0.00279642C149.803 0 151.284 0 152.766 0ZM152.393 6.16051C152.404 6.11857 152.415 6.00671 152.44 6.00112C152.956 5.92561 153.302 5.57606 153.542 5.17338C153.766 4.80145 153.979 4.34564 153.968 3.93456C153.957 3.52069 153.705 3.08725 153.487 2.70694C153.197 2.20358 152.71 1.92953 152.138 1.90436C151.389 1.87081 150.637 1.90157 149.888 1.88758C149.665 1.88479 149.576 1.93792 149.579 2.184C149.59 3.40045 149.59 4.61689 149.579 5.83054C149.579 6.05145 149.642 6.12136 149.861 6.11857C150.566 6.10738 151.273 6.11018 151.981 6.11857C152.119 6.11857 152.254 6.14933 152.393 6.16331V6.16051Z" fill="white"/>
<path d="M187.06 -0.000133267C187.06 0.0222381 187.046 0.0529987 187.055 0.0641844C187.419 0.45009 187.378 0.931075 187.378 1.40647C187.372 4.70065 187.367 7.99483 187.378 11.289C187.378 11.7029 187.09 11.8539 186.842 12.0413C186.665 12.1755 186.137 12.0357 185.955 11.8819C185.697 11.6665 185.603 11.4149 185.606 11.0681C185.62 7.84103 185.62 4.61396 185.606 1.38689C185.606 0.875147 185.623 0.391366 185.993 -0.00292969C186.353 -0.000133267 186.706 -0.000133267 187.06 -0.000133267Z" fill="white"/>
<path d="M64.0392 32.3127C64.0862 32.7964 64.1719 33.2802 64.1691 33.7668C64.1636 34.6868 64.1415 35.6124 64.0586 36.5297C64.006 37.1169 63.8264 37.6958 63.7131 38.2774C63.6301 38.6941 63.5776 39.1192 63.4754 39.5302C63.3759 39.9301 63.246 40.3244 63.094 40.7047C62.8259 41.3759 62.5743 42.061 62.2316 42.6958C61.8502 43.4089 61.3997 44.0856 60.9326 44.7483C60.5291 45.3216 60.0896 45.8725 59.6225 46.3954C59.2466 46.8149 58.8072 47.1728 58.3981 47.5588C58.235 47.7126 58.13 47.8328 58.4423 47.9586C58.5833 48.0174 58.6607 48.2243 58.7989 48.311C58.9067 48.3809 59.067 48.3585 59.1996 48.4005C59.5893 48.5263 59.968 48.6941 60.3632 48.792C61.6595 49.1164 62.9641 49.1303 64.2603 48.7836C64.6528 48.6773 65.0453 48.5515 65.4184 48.3893C65.7445 48.2467 66.0596 48.0621 66.3471 47.8496C66.9026 47.4413 67.4443 47.0107 67.9695 46.566C68.5388 46.085 69.6361 46.1242 70.1087 46.566C70.3436 46.7841 70.5122 47.1533 70.5592 47.4777C70.6117 47.844 70.5095 48.2355 70.4487 48.613C70.4266 48.7416 70.3464 48.8731 70.2552 48.9709C69.4758 49.8099 68.5471 50.4447 67.5659 51.0179C66.6566 51.5492 65.6782 51.8876 64.6777 52.1673C64.3073 52.2707 63.8817 52.1952 63.5251 52.3211C63.011 52.5028 62.4997 52.4525 61.9967 52.4217C61.2919 52.377 60.5761 52.349 59.8906 52.1085C59.2024 51.868 58.4644 51.7478 57.8039 51.4486C57.1322 51.1438 56.5214 50.6935 55.894 50.2937C55.6287 50.1231 55.3938 49.9077 55.1312 49.7316C55.0842 49.698 54.9736 49.74 54.9018 49.7707C54.3601 49.9972 53.8349 50.2741 53.2794 50.4475C52.5635 50.6712 51.8201 50.7998 51.0931 50.9956C50.5348 51.1466 49.9627 51.1717 49.4016 51.2612C48.0916 51.4653 46.7842 51.3395 45.4797 51.3395C44.8136 51.3395 44.1503 51.0711 43.4786 51.0067C42.8208 50.9424 42.2183 50.7355 41.6075 50.5174C40.9884 50.2992 40.3306 50.1594 39.7474 49.8686C38.7828 49.3848 37.8292 48.8815 36.9641 48.2019C36.1737 47.5811 35.3528 46.9995 34.7143 46.2165C34.1229 45.4894 33.5618 44.7344 33.0339 43.9598C32.6829 43.4452 32.365 42.8971 32.1135 42.3266C31.7625 41.5353 31.4419 40.7215 31.1876 39.8938C30.972 39.1919 30.8836 38.4536 30.7012 37.7405C30.5077 36.9771 30.4469 36.2109 30.4497 35.4251C30.4497 34.9609 30.3502 34.4967 30.3557 34.0353C30.3667 33.1935 30.3861 32.3462 30.469 31.5101C30.5271 30.92 30.6956 30.3384 30.8145 29.7539C30.8946 29.3596 30.9499 28.957 31.055 28.5683C31.1683 28.1516 31.3065 27.7377 31.4695 27.3378C31.7432 26.6695 31.9974 25.9844 32.354 25.3608C32.8294 24.5246 33.3766 23.7277 33.9266 22.9363C34.2528 22.4693 34.601 22.0051 35.0128 21.6164C35.6651 20.9983 36.345 20.3971 37.0747 19.877C37.8348 19.3317 38.6391 18.8311 39.4765 18.4173C40.3002 18.009 41.1818 17.7154 42.0525 17.4077C42.4145 17.2791 42.807 17.226 43.1912 17.1645C43.7854 17.0666 44.3824 16.9743 44.9822 16.91C45.5543 16.8485 46.132 16.8065 46.7069 16.7925C47.4918 16.773 48.2767 16.7646 49.0617 16.7981C49.4652 16.8149 49.8632 16.9351 50.264 17.0079C50.7504 17.0973 51.2369 17.1784 51.7233 17.2763C52.0495 17.3406 52.3811 17.3994 52.6934 17.5084C53.3236 17.7293 53.9593 17.9475 54.5618 18.2327C55.3523 18.6046 56.1262 19.0157 56.8807 19.4575C57.2926 19.698 57.6574 20.028 58.0305 20.3328C58.4257 20.6544 58.832 20.9704 59.1886 21.3339C59.6667 21.8233 60.1255 22.3378 60.5512 22.8747C60.9796 23.4145 61.3693 23.9849 61.7479 24.561C61.9829 24.9161 62.1957 25.2937 62.3588 25.6879C62.7125 26.5437 63.0691 27.3994 63.3427 28.283C63.5666 29.0045 63.6716 29.7623 63.8209 30.509C63.9397 31.1046 64.042 31.703 64.1525 32.3015C64.1166 32.3071 64.0807 32.3127 64.0475 32.3183L64.0392 32.3127ZM38.932 43.6969C39.0039 43.6577 39.1172 43.6242 39.1891 43.5487C39.822 42.8831 40.5738 42.3602 41.3919 41.9967C42.1326 41.6695 42.8872 41.3563 43.7053 41.1773C44.4847 41.0067 45.2669 40.9424 46.0435 40.8641C46.6765 40.7998 47.3315 40.92 47.9727 40.9788C48.2712 41.0067 48.567 41.0739 48.8572 41.1438C49.2026 41.2305 49.5398 41.3367 49.8798 41.4402C50.2502 41.552 50.6316 41.6331 50.9826 41.7897C51.5271 42.033 52.066 42.2987 52.5801 42.6035C53.2158 42.981 53.857 43.3641 54.3711 43.9178C54.4761 44.0325 54.5756 44.1667 54.7055 44.2394C54.8023 44.2925 54.9902 44.3233 55.0566 44.2646C55.4684 43.915 55.9023 43.5794 56.2423 43.1656C56.831 42.4469 57.3782 41.6891 57.9034 40.9228C58.3428 40.2797 58.6773 39.5722 58.8956 38.8171C59.0725 38.2047 59.2356 37.5867 59.3738 36.9631C59.5064 36.3563 59.6833 35.7411 59.6916 35.1287C59.7027 34.2478 59.7773 33.3641 59.6142 32.4721C59.4954 31.8233 59.4622 31.1577 59.2494 30.5202C59.0587 29.9469 58.9785 29.3289 58.7381 28.778C58.2793 27.7349 57.7403 26.7198 57.0217 25.8306C56.6016 25.3104 56.0764 24.877 55.6232 24.3792C55.0566 23.7556 54.3573 23.3194 53.6442 22.9027C53.0804 22.5727 52.5055 22.2316 51.8919 22.0302C51.2728 21.8289 50.6482 21.6247 50.0042 21.4765C49.2635 21.306 48.5172 21.3115 47.7792 21.1997C47.2458 21.1186 46.6765 21.2948 46.1237 21.2948C45.2033 21.2948 44.3161 21.4402 43.4593 21.7785C42.8485 22.019 42.21 22.2008 41.6213 22.486C41.0326 22.7713 40.4743 23.1264 39.9381 23.5039C39.4572 23.8423 38.9818 24.2114 38.5838 24.6421C37.973 25.2992 37.4285 26.0207 36.8619 26.7198C36.779 26.8205 36.7099 26.9324 36.6546 27.0498C36.5634 27.2456 36.4971 27.4525 36.4058 27.6454C36.1516 28.1768 35.8282 28.6829 35.6458 29.2366C35.3887 30.014 35.2146 30.8222 35.0405 31.622C34.9327 32.1197 34.836 32.6315 34.8332 33.1376C34.8304 34.0436 34.9023 34.9525 34.9382 35.8585C34.9437 36.0011 34.894 36.1549 34.9272 36.2892C35.035 36.7394 35.1483 37.1896 35.292 37.6287C35.5159 38.311 35.7204 39.0017 36.0106 39.6533C36.5385 40.8445 37.1825 41.9687 38.1112 42.9027C38.3682 43.1628 38.6391 43.4089 38.9348 43.6885L38.932 43.6969ZM51.751 46.0683C48.4923 43.9374 45.1895 43.5543 41.7346 45.6544C43.346 46.5492 45.0402 46.8457 46.7483 46.9184C48.4536 46.9911 50.1562 46.7841 51.751 46.0683Z" fill="white"/>
<path d="M98.3059 29.9467C98.3059 33.3444 98.3059 36.742 98.3059 40.1369C98.3059 40.9954 98.1594 41.8287 97.9577 42.6648C97.7642 43.4674 97.4989 44.228 97.1258 44.9579C96.7056 45.78 96.2524 46.5742 95.5807 47.2258C95.0971 47.6956 94.6465 48.1989 94.1518 48.6576C93.8561 48.9288 93.5189 49.1665 93.1762 49.3734C92.6317 49.7006 92.0872 50.0334 91.5068 50.2823C90.7688 50.5983 90.0087 50.8723 89.2376 51.0932C88.5494 51.289 87.8363 51.3953 87.1232 51.4987C85.8353 51.6889 84.5528 51.5798 83.2704 51.577C82.4799 51.577 81.7033 51.4596 80.9377 51.2443C80.2964 51.0653 79.6193 50.9898 79.0085 50.7409C78.1157 50.3802 77.27 49.9048 76.3994 49.4825C75.7415 49.1637 75.2219 48.6604 74.647 48.2213C74.0003 47.7264 73.5553 47.0888 73.055 46.4792C72.5189 45.8276 72.1126 45.1061 71.7809 44.3371C71.5708 43.8477 71.3801 43.35 71.2143 42.8438C71.1341 42.6033 71.1424 42.3349 71.0982 42.0804C71.0263 41.6777 70.9407 41.275 70.866 40.8723C70.8495 40.7856 70.8495 40.6962 70.8495 40.6067C70.8495 33.4898 70.8439 26.3701 70.8522 19.2532C70.8522 18.4171 71.7311 17.2258 72.7372 17.2398C73.2098 17.2454 73.6631 17.251 74.1191 17.3712C74.7548 17.539 75.0948 18.02 75.2938 18.5904C75.4071 18.912 75.4209 19.2812 75.4209 19.6279C75.4265 26.412 75.4209 33.1934 75.4375 39.9775C75.4375 40.4557 75.584 40.9422 75.7111 41.412C75.8272 41.8455 75.982 42.2761 76.1699 42.6844C76.3054 42.9808 76.521 43.2409 76.7061 43.5149C77.2258 44.2812 77.8918 44.9187 78.6326 45.4333C79.318 45.9087 80.0947 46.2666 80.8686 46.5798C81.4683 46.8203 82.1261 46.9126 82.7563 47.0692C82.7784 47.0748 82.8005 47.0748 82.8226 47.0776C83.7181 47.1195 84.6164 47.2146 85.5119 47.1838C86.1476 47.1615 86.775 46.9517 87.4107 46.8567C88.2454 46.7308 89.0082 46.4288 89.7434 46.0205C90.4814 45.6123 91.1502 45.1257 91.7472 44.5133C92.3663 43.8785 92.8307 43.1542 93.201 42.3656C93.3973 41.9489 93.4802 41.4736 93.5963 41.0205C93.9141 39.7733 93.845 38.4982 93.845 37.2314C93.845 31.2415 93.8561 25.2515 93.834 19.2616C93.8312 18.308 94.4503 17.5781 95.1883 17.3321C95.5338 17.2174 95.9539 17.0384 96.3795 17.2454C96.6034 17.3544 96.9102 17.2929 97.134 17.4048C97.9052 17.7935 98.3142 18.4199 98.3142 19.3203C98.3059 22.8634 98.3115 26.4036 98.3115 29.9467H98.3059Z" fill="white"/>
<path d="M187.56 16.7811C188.102 16.7811 188.646 16.7531 189.185 16.7895C189.589 16.8174 189.99 16.9321 190.391 17.0048C190.487 17.0216 190.59 17.0076 190.686 17.0272C191.012 17.0887 191.336 17.1642 191.659 17.2257C191.83 17.2565 192.013 17.2453 192.176 17.2928C193.212 17.6032 194.207 18.0199 195.139 18.568C195.824 18.9707 196.482 19.4209 197.123 19.8935C197.541 20.2011 197.933 20.5534 198.279 20.9393C198.456 21.1379 198.552 21.4483 198.599 21.7251C198.652 22.0523 198.599 22.3935 198.613 22.7291C198.641 23.3946 198.268 23.8001 197.784 24.1804C197.234 24.6166 196.609 24.5691 196.001 24.5132C195.703 24.4852 195.393 24.2951 195.136 24.1133C194.492 23.6631 193.884 23.1653 193.243 22.7123C192.972 22.5221 192.657 22.3907 192.353 22.2509C191.855 22.0244 191.358 21.7978 190.849 21.6021C190.581 21.4986 190.291 21.4399 190.006 21.4036C189.556 21.3476 189.097 21.3281 188.644 21.2889C188.199 21.2525 187.748 21.1547 187.312 21.191C186.507 21.2581 185.703 21.3085 184.901 21.493C183.995 21.7 183.168 22.0803 182.323 22.4215C181.861 22.6088 181.46 22.95 181.024 23.2045C180.562 23.4729 180.189 23.8476 179.797 24.2C179.636 24.3454 179.446 24.4628 179.302 24.6222C178.603 25.408 177.909 26.1854 177.373 27.1138C176.806 28.101 176.303 29.1049 175.991 30.1983C175.841 30.7128 175.792 31.2553 175.642 31.7699C175.347 32.785 175.377 33.8197 175.407 34.8543C175.421 35.3269 175.554 35.7967 175.631 36.2693C175.678 36.549 175.7 36.8314 175.77 37.1055C175.891 37.5948 176.021 38.0842 176.179 38.5624C176.284 38.884 176.43 39.1944 176.577 39.502C176.795 39.955 177.005 40.4164 177.262 40.8471C177.522 41.2889 177.807 41.7223 178.127 42.125C178.531 42.634 178.962 43.1234 179.418 43.5848C179.772 43.9427 180.153 44.2867 180.57 44.5607C181.328 45.0585 182.096 45.559 182.911 45.9477C183.597 46.2749 184.351 46.4371 185.095 46.6329C186.106 46.8957 187.113 46.7559 188.116 46.8314C188.646 46.8706 189.138 46.6748 189.642 46.6385C190.648 46.5657 191.51 46.0932 192.405 45.7436C193.132 45.4612 193.785 44.9746 194.462 44.5607C194.871 44.3118 195.244 44.0042 195.661 43.7749C196.319 43.4142 197.502 43.5792 197.977 44.1357C198.276 44.4852 198.555 44.8935 198.511 45.4164C198.475 45.8555 198.48 46.2973 198.414 46.7307C198.334 47.2565 197.961 47.6256 197.568 47.908C196.855 48.4282 196.115 48.9203 195.341 49.3426C194.567 49.7649 193.751 50.1088 192.936 50.4472C192.411 50.6653 191.866 50.8555 191.311 50.9729C190.67 51.1071 189.998 51.1071 189.357 51.2414C188.251 51.4763 187.137 51.3616 186.035 51.328C185.374 51.3057 184.68 51.2833 184.028 51.0204C183.672 50.875 183.268 50.8582 182.895 50.7576C182.417 50.6289 181.933 50.5059 181.477 50.3185C180.858 50.0641 180.25 49.7704 179.661 49.4516C179.147 49.172 178.669 48.8253 178.169 48.5176C176.98 47.7878 176.043 46.7643 175.095 45.7632C174.67 45.3129 174.307 44.7956 173.967 44.2727C173.564 43.6491 173.177 43.0087 172.851 42.3432C172.492 41.6105 172.174 40.8527 171.903 40.0836C171.66 39.3901 171.491 38.6687 171.322 37.95C171.24 37.6032 171.226 37.2369 171.198 36.8761C171.148 36.2805 171.115 35.6849 171.068 35.0892C171.032 34.6418 170.949 34.1944 170.955 33.747C170.963 33.0898 171.002 32.4298 171.079 31.7783C171.159 31.0904 171.253 30.394 171.43 29.7257C171.651 28.8896 171.928 28.0646 172.246 27.2621C172.561 26.4651 172.898 25.6625 173.335 24.9326C173.843 24.0881 174.468 23.3163 175.051 22.5193C175.231 22.2704 175.41 22.0104 175.634 21.809C175.93 21.5406 176.159 21.205 176.466 20.9533C176.781 20.6989 177.104 20.4528 177.433 20.2151C178.113 19.7229 178.763 19.1664 179.492 18.7665C180.322 18.3107 181.22 17.9723 182.104 17.634C182.746 17.3907 183.412 17.2145 184.075 17.0383C184.374 16.9572 184.691 16.9293 185.004 16.9069C185.852 16.8426 186.703 16.7923 187.555 16.7363C187.555 16.7531 187.555 16.7699 187.558 16.7867L187.56 16.7811Z" fill="white"/>
<path d="M101.833 48.5069C101.752 47.9476 102.04 47.489 102.22 47.0136C102.537 46.1775 102.872 45.3441 103.212 44.5164C103.477 43.8732 103.767 43.2412 104.033 42.598C104.392 41.7311 104.732 40.8559 105.091 39.989C105.288 39.5136 105.525 39.0578 105.724 38.5824C106.072 37.7462 106.401 36.9017 106.741 36.0628C106.868 35.7496 107.004 35.442 107.139 35.1316C107.515 34.2619 107.902 33.395 108.27 32.5225C108.552 31.8542 108.814 31.1719 109.091 30.5007C109.522 29.4632 109.958 28.4286 110.39 27.3911C110.788 26.4347 111.177 25.4756 111.575 24.5192C111.896 23.7446 112.225 22.9756 112.543 22.2009C112.905 21.3201 113.256 20.4336 113.612 19.5499C113.723 19.2759 113.853 19.0102 113.95 18.7306C114.132 18.2216 114.483 17.8441 114.87 17.4974C114.969 17.4079 115.121 17.3603 115.254 17.338C115.475 17.3016 115.782 17.3855 115.909 17.2653C116.144 17.0416 116.299 17.2121 116.492 17.2541C116.661 17.2904 116.841 17.2764 117.006 17.324C117.653 17.5086 117.999 18.0147 118.253 18.5936C118.416 18.9627 118.535 19.3486 118.687 19.7205C118.985 20.4448 119.289 21.1635 119.596 21.885C119.986 22.7994 120.384 23.711 120.776 24.6254C121.009 25.1679 121.243 25.7105 121.462 26.2586C121.76 27.008 122.034 27.7658 122.332 28.5125C122.515 28.9683 122.736 29.4101 122.924 29.8659C123.25 30.6657 123.551 31.4739 123.886 32.2709C124.198 33.0147 124.555 33.7418 124.861 34.4884C125.259 35.4532 125.624 36.4319 126.011 37.4023C126.141 37.7267 126.304 38.0371 126.437 38.3587C126.815 39.2759 127.183 40.1987 127.559 41.1187C127.683 41.4207 127.819 41.72 127.943 42.0248C128.327 42.9616 128.703 43.9012 129.096 44.8352C129.289 45.2994 129.51 45.7524 129.718 46.211C130.135 47.145 130.563 48.079 130.397 49.1445C130.317 49.6562 130.093 50.1288 129.679 50.4448C129.187 50.8195 128.62 51.0488 127.985 50.9845C127.484 50.9342 126.998 50.7664 126.63 50.4252C126.213 50.0393 125.961 49.5304 125.809 48.9627C125.713 48.5992 125.5 48.2664 125.359 47.9112C124.98 46.9605 124.615 46.0069 124.237 45.0561C123.952 44.3458 123.645 43.6467 123.363 42.9336C123.095 42.2541 122.852 41.5662 122.584 40.8866C122.371 40.3469 122.128 39.8212 121.915 39.2815C121.625 38.546 121.354 37.805 121.067 37.0695C120.895 36.6333 120.702 36.2082 120.53 35.772C120.152 34.81 119.787 33.8424 119.405 32.8833C119.173 32.3016 118.911 31.7311 118.676 31.1495C118.399 30.4672 118.145 29.7764 117.871 29.0941C117.708 28.6886 117.526 28.2915 117.36 27.8861C117.172 27.4275 116.987 26.9633 116.807 26.499C116.639 26.0628 116.487 25.621 116.318 25.1875C116.304 25.1512 116.221 25.112 116.183 25.1232C116.13 25.14 116.072 25.1931 116.053 25.2434C115.788 25.8894 115.525 26.5326 115.271 27.1842C115.008 27.8609 114.757 28.5404 114.497 29.2172C114.386 29.5024 114.265 29.7848 114.151 30.0673C113.914 30.6601 113.731 31.2865 113.419 31.8374C113.178 32.2597 113.093 32.7295 112.866 33.1517C112.637 33.5768 112.532 34.069 112.355 34.5248C112.211 34.8939 112.037 35.2462 111.888 35.6126C111.575 36.39 111.277 37.1702 110.962 37.9448C110.732 38.5097 110.475 39.0634 110.249 39.631C109.964 40.3497 109.701 41.0768 109.42 41.7955C109.306 42.0891 109.165 42.3743 109.044 42.6652C108.776 43.3195 108.516 43.9767 108.245 44.631C107.852 45.5874 107.454 46.5438 107.059 47.5002C106.763 48.216 106.459 48.9291 106.183 49.6506C105.934 50.305 105.395 50.607 104.818 50.8475C104 51.1858 103.245 50.9146 102.595 50.4196C102.322 50.2127 102.153 49.8268 102.018 49.4884C101.896 49.1836 101.885 48.8313 101.827 48.5013L101.833 48.5069Z" fill="white"/>
<path d="M139.281 21.7872C139.143 21.7872 139.024 21.7872 138.902 21.7872C136.05 21.7872 133.197 21.8039 130.345 21.7732C129.712 21.7676 129.065 21.583 128.626 21.0601C128.419 20.814 128.294 20.4784 128.203 20.1624C128.115 19.8632 128.065 19.5333 128.084 19.2229C128.131 18.5042 128.405 17.8638 129.013 17.4583C129.284 17.2765 129.64 17.1619 129.936 17.3101C130.049 17.243 130.121 17.1843 130.201 17.1591C130.273 17.1367 130.353 17.1535 130.431 17.1535C137.838 17.1535 145.245 17.1479 152.652 17.1647C153.238 17.1647 153.869 17.2374 154.316 17.6904C154.618 17.9952 154.919 18.3364 154.905 18.8314C154.894 19.1781 154.888 19.5249 154.905 19.8716C154.938 20.5036 154.618 20.9427 154.159 21.3006C153.717 21.6473 153.189 21.7788 152.647 21.7816C149.861 21.7928 147.075 21.7872 144.289 21.7872C144.167 21.7872 144.048 21.7872 143.877 21.7872V22.1927C143.877 30.9427 143.88 39.6926 143.866 48.4426C143.866 49.0411 143.75 49.6507 143.36 50.1485C143.076 50.5148 142.678 50.7217 142.255 50.8671C141.34 51.1775 140.522 50.9231 139.861 50.2771C139.485 49.908 139.297 49.4046 139.297 48.8146C139.314 42.6792 139.308 36.5439 139.308 30.4085C139.308 27.5814 139.308 24.7542 139.308 21.927C139.308 21.8962 139.295 21.8627 139.275 21.7872H139.281Z" fill="white"/>
<path d="M159.698 34.0462C159.698 29.0517 159.689 24.0601 159.709 19.0657C159.709 18.4645 160.04 17.9947 160.53 17.6032C160.941 17.276 161.42 17.2285 161.865 17.1809C162.29 17.1334 162.796 17.2425 163.172 17.455C163.622 17.7095 163.982 18.1541 164.139 18.6798C164.244 19.0322 164.277 19.4181 164.277 19.7872C164.286 29.4041 164.297 39.0238 164.269 48.6407C164.264 50.12 163.197 51.1379 161.624 50.9673C160.693 50.8638 160.013 50.2962 159.706 49.3566C159.678 49.2755 159.695 49.1804 159.695 49.0909C159.695 44.0741 159.695 39.0601 159.695 34.0434L159.698 34.0462Z" fill="white"/>
<path d="M98.3448 64.5524C98.5023 63.9679 98.6488 63.3807 98.823 62.8018C98.8561 62.6955 98.9916 62.5613 99.0938 62.5473C99.3647 62.511 99.6411 62.5361 100.006 62.5361C99.9506 62.9276 99.8843 63.2744 99.8511 63.6267C99.7931 64.2839 99.5416 64.8711 99.2541 65.4528C99.2154 65.5311 99.2624 65.7073 99.3315 65.78C99.5305 65.9925 99.7627 66.1715 99.9755 66.3756C100.277 66.6664 100.592 66.9489 100.86 67.2677C100.973 67.4019 100.993 67.62 101.078 67.8661C100.503 67.8661 100.009 67.8913 99.5167 67.8521C99.3564 67.8381 99.1961 67.6704 99.0662 67.5417C98.8368 67.318 98.6405 67.0524 98.4001 66.8426C98.3337 66.7867 98.1099 66.8258 98.027 66.8986C97.347 67.497 96.5704 67.8326 95.6666 67.8661C95.5312 67.8717 95.3957 67.9947 95.2686 67.9836C94.456 67.9137 93.6351 67.8242 93.0133 67.2118C92.4881 66.6944 92.1205 66.1016 92.1703 65.2962C92.2034 64.7565 92.1647 64.214 92.4052 63.7106C92.4135 63.6911 92.4135 63.6631 92.4273 63.6491C92.8226 63.2157 93.11 62.6704 93.6794 62.4187C93.9253 62.3096 94 62.2034 93.8176 61.9181C93.6324 61.6273 93.5356 61.261 93.4776 60.9142C93.4223 60.5898 93.4859 60.2459 93.461 59.9103C93.4113 59.2028 94.0193 58.3387 94.6937 58.0507C95.1967 57.8354 95.6915 57.7235 96.2249 57.7319C97.2973 57.7487 98.3033 58.5876 98.5134 59.639C98.6212 60.1704 98.4858 60.3158 97.9579 60.3521C97.5433 60.3801 97.3222 60.2571 97.1204 59.8572C96.8827 59.3874 96.4681 59.0406 95.8601 59.1413C95.3183 59.2336 94.9342 59.5552 94.749 60.0557C94.5859 60.5003 94.7987 60.9254 95.0862 61.247C95.8103 62.0663 96.5731 62.8521 97.3194 63.6519C97.6151 63.9707 97.9136 64.2867 98.2121 64.6027C98.2536 64.5859 98.2951 64.5691 98.3337 64.5524H98.3448ZM97.2669 65.917C97.2752 65.8611 97.2835 65.8052 97.2918 65.752C97.0485 65.5255 96.797 65.3046 96.5621 65.0697C96.0231 64.5328 95.4925 63.9847 94.9452 63.4534C94.8789 63.389 94.6854 63.3527 94.6357 63.3974C94.3289 63.6715 94.0276 63.9595 93.7623 64.2727C93.4748 64.6139 93.4859 65.4192 93.7485 65.766C94.1934 66.3505 94.8015 66.5881 95.5118 66.5854C95.6555 66.5854 95.8048 66.5182 95.9457 66.4623C96.3907 66.2861 96.8302 66.0988 97.2724 65.9142L97.2669 65.917Z" fill="white"/>
<path d="M173.517 67.8472H172.146C172.14 67.7353 172.132 67.6374 172.132 67.5396C172.132 66.0882 172.146 64.6341 172.118 63.1827C172.113 62.9199 171.988 62.6374 171.856 62.3997C171.519 61.7985 170.49 61.9299 170.026 62.3494C169.741 62.6095 169.587 62.8695 169.598 63.2918C169.631 64.7963 169.611 66.3035 169.611 67.8388H168.238V60.761H169.318C169.385 60.982 169.451 61.1973 169.537 61.4853C170.054 60.8645 170.684 60.4423 171.455 60.5541C172.132 60.6548 172.79 60.9316 172.959 61.8405C173.061 61.6978 173.113 61.6028 173.185 61.5273C173.633 61.0519 174.106 60.6883 174.808 60.5905C175.767 60.4562 176.48 60.7918 177.044 61.5021C177.248 61.7594 177.403 62.1341 177.408 62.4585C177.444 64.2426 177.425 66.0295 177.425 67.8416H176.167V67.4249C176.167 66.1749 176.184 64.9221 176.156 63.6721C176.148 63.3254 176.046 62.9618 175.91 62.6402C175.675 62.081 175.203 61.9607 174.636 62.0166C174.186 62.0586 173.937 62.3214 173.719 62.6738C173.553 62.9395 173.511 63.2191 173.511 63.5267C173.52 64.9557 173.514 66.3846 173.514 67.8528L173.517 67.8472Z" fill="white"/>
<path d="M17.7027 65.6316C18.0482 64.5969 18.3881 63.5818 18.7281 62.5667C18.8911 62.0745 19.057 61.5823 19.2145 61.0874C19.3555 60.6344 19.7645 60.4638 20.2178 60.6511C20.4693 60.7546 20.5661 60.928 20.6352 61.1797C20.8369 61.9067 21.0691 62.6254 21.3013 63.3441C21.4699 63.867 21.6495 64.3872 21.8264 64.9073C21.9038 65.1394 21.9867 65.3687 22.1332 65.6036C22.2659 65.1086 22.3902 64.6137 22.5339 64.1243C22.6556 63.7076 22.8131 63.3021 22.9375 62.8855C23.0867 62.3905 23.2443 61.8955 23.3438 61.3866C23.4571 60.8217 23.5234 60.735 24.1038 60.735C24.2033 60.735 24.3028 60.735 24.4023 60.735C24.8722 60.735 24.9828 60.8804 24.8363 61.3307C24.676 61.8228 24.5018 62.3122 24.3443 62.8072C24.1868 63.3021 24.0513 63.8027 23.891 64.2949C23.6837 64.9325 23.4543 65.5617 23.247 66.1992C23.095 66.6718 22.9762 67.1556 22.8131 67.6226C22.7772 67.7233 22.6279 67.8351 22.5174 67.8491C22.2797 67.8827 22.0254 67.8967 21.7932 67.8491C21.6357 67.8156 21.4201 67.6897 21.3731 67.5527C21.1409 66.9011 20.9641 66.2328 20.7512 65.5728C20.5301 64.8821 20.2952 64.197 20.0658 63.5119C20.0078 63.3357 19.9469 63.1567 19.8861 62.9806C19.8557 62.9862 19.8281 62.9917 19.7977 62.9973C19.7065 63.2993 19.6153 63.6014 19.5241 63.9006C19.3251 64.5493 19.1344 65.2037 18.9188 65.8497C18.7115 66.4649 18.4793 67.0745 18.2389 67.6785C18.2057 67.7596 18.073 67.8463 17.9818 67.8519C17.664 67.8743 17.3434 67.8603 17.0228 67.8603C16.7712 67.1165 16.5142 66.395 16.282 65.6623C16.0609 64.9716 15.8702 64.2725 15.6519 63.579C15.4473 62.9274 15.2207 62.2842 15.0079 61.6383C14.936 61.423 14.8669 61.2076 14.8172 60.9867C14.784 60.8385 14.8282 60.7266 15.0217 60.7294C15.3534 60.7378 15.6878 60.7099 16.0167 60.7406C16.1273 60.7518 16.282 60.8749 16.3207 60.9839C16.4921 61.4621 16.6358 61.9487 16.774 62.4381C16.9426 63.0337 17.0974 63.6321 17.2604 64.2306C17.3821 64.6808 17.5064 65.1282 17.6336 65.5784C17.6391 65.6008 17.6833 65.612 17.711 65.6288L17.7027 65.6316Z" fill="white"/>
<path d="M108.474 61.6193C108.69 61.4403 108.856 61.334 108.98 61.1886C109.284 60.8391 109.688 60.7048 110.113 60.607C110.271 60.5706 110.426 60.4839 110.581 60.4895C111.219 60.5175 111.794 60.6992 112.297 61.1411C112.922 61.6892 113.14 62.3911 113.228 63.1741C113.267 63.5348 113.347 63.8956 113.339 64.2535C113.328 64.8519 113.209 65.4308 113.018 66.0097C112.863 66.4795 112.642 66.8877 112.286 67.1953C111.83 67.5868 111.343 67.9643 110.672 67.8637C110.52 67.8413 110.362 67.8497 110.207 67.8637C109.63 67.9112 109.099 67.8189 108.613 67.3212V69.9051H107.206C107.206 69.7932 107.206 69.6758 107.206 69.5583C107.206 66.7451 107.211 63.9319 107.198 61.1187C107.198 60.8027 107.283 60.6909 107.587 60.7356C107.706 60.7524 107.833 60.7524 107.952 60.7356C108.314 60.6825 108.438 60.7775 108.472 61.2585C108.477 61.3452 108.472 61.4347 108.472 61.6193H108.474ZM108.596 64.3318C108.596 64.7457 108.588 65.1595 108.602 65.5706C108.604 65.6825 108.646 65.8139 108.715 65.8978C108.964 66.2026 109.265 66.4263 109.649 66.5466C110.196 66.7199 111.042 66.3564 111.407 65.9118C111.824 65.4056 111.761 64.782 111.96 64.2255C111.985 64.1528 111.94 64.055 111.921 63.9683C111.896 63.8648 111.841 63.7613 111.844 63.6579C111.846 63.1797 111.645 62.7994 111.374 62.419C111.056 61.9744 110.625 62.0136 110.171 62.0052C109.718 61.9968 109.384 62.1981 109.044 62.4582C108.66 62.7546 108.535 63.1209 108.593 63.5907C108.624 63.834 108.599 64.0829 108.599 64.3262L108.596 64.3318Z" fill="white"/>
<path d="M53.9456 60.7386C54.2192 60.7386 54.4735 60.7414 54.725 60.7386C54.9627 60.7358 55.0594 60.8504 55.0622 61.0881C55.0622 61.2112 55.1147 61.3342 55.1423 61.4573C55.2418 61.4013 55.3524 61.3622 55.4381 61.2867C55.9217 60.856 56.5049 60.6155 57.1213 60.5121C57.4419 60.4589 57.8039 60.5792 58.1329 60.6715C58.7381 60.8421 59.2052 61.228 59.4678 61.7984C59.6309 62.1508 59.6502 62.5674 59.7884 62.9366C60.0289 63.577 59.8907 64.2341 59.9017 64.8801C59.9238 66.1245 59.0201 67.4276 57.8592 67.8275C57.5994 67.917 57.2926 67.8499 57.0052 67.8667C56.4137 67.9002 55.8361 67.8834 55.3828 67.4136C55.3634 67.3941 55.322 67.3969 55.2888 67.3969C55.2695 67.3969 55.2474 67.4081 55.2004 67.422V69.9053H53.9456V60.7386ZM55.1865 64.4187C55.1865 64.8102 55.1783 65.2017 55.1921 65.5904C55.1948 65.7022 55.228 65.8337 55.2971 65.9176C55.8084 66.5523 56.726 66.79 57.4529 66.4097C58.1881 66.0238 58.4203 65.3219 58.5143 64.5613C58.5861 63.974 58.4866 63.398 58.2959 62.8387C58.155 62.4276 57.8233 62.106 57.475 62.0529C57.0218 61.983 56.5104 61.86 56.0544 62.2207C55.5486 62.6206 55.0511 62.9813 55.181 63.7447C55.2169 63.9629 55.1865 64.1894 55.1865 64.4131V64.4187Z" fill="white"/>
<path d="M80.0836 67.8666C79.6221 67.8666 79.2075 67.9198 78.815 67.8443C78.6022 67.8023 78.4059 67.5618 78.2456 67.3745C77.9527 67.0333 77.6984 66.6614 77.4165 66.3118C77.0323 65.8336 76.6315 65.3666 76.2473 64.8857C76.076 64.6703 75.8742 64.5836 75.5702 64.6731V67.8415H74.2905C74.2905 67.724 74.2905 67.615 74.2905 67.5087C74.2905 64.3376 74.296 61.1636 74.2822 57.9925C74.2822 57.6821 74.3596 57.5618 74.6692 57.6038C74.8212 57.6234 74.9787 57.6066 75.1335 57.6066C75.5536 57.6066 75.5564 57.6066 75.5564 58.0484C75.5564 59.7011 75.5564 61.3538 75.5564 63.0065C75.5564 63.1155 75.5564 63.2218 75.5564 63.3253C75.8383 63.4119 76.0345 63.3644 76.2059 63.1575C76.5016 62.8023 76.8167 62.464 77.1235 62.1172C77.4745 61.7201 77.82 61.3202 78.1765 60.9287C78.2539 60.8448 78.37 60.7525 78.4695 60.747C78.9421 60.7274 79.4148 60.7386 80.0062 60.7386C79.904 60.9679 79.8625 61.1608 79.752 61.2895C79.3263 61.7816 78.8813 62.2598 78.4336 62.7352C78.1378 63.0512 77.8449 63.3784 77.5187 63.6608C77.2728 63.8706 77.3723 64.0411 77.5132 64.2117C78.0909 64.9192 78.6796 65.6155 79.2545 66.3258C79.5143 66.6474 79.7685 66.9746 79.9897 67.3241C80.0726 67.4556 80.0505 67.6541 80.0809 67.8666H80.0836Z" fill="white"/>
<path d="M41.5577 64.5102C40.9386 64.5102 40.3195 64.5102 39.7032 64.5102C39.3135 64.5102 39.3549 64.5046 39.3992 64.8989C39.4627 65.4638 39.775 65.8497 40.162 66.2048C40.5545 66.5628 41.367 66.7194 41.8811 66.5041C42.2874 66.3335 42.6965 66.1629 43.0862 65.9588C43.2852 65.8553 43.4151 65.8749 43.545 66.0371C43.5533 66.0454 43.5616 66.051 43.5699 66.0594C44.0839 66.5684 44.037 67.0186 43.3957 67.3598C42.8181 67.6674 42.2266 67.9386 41.5356 67.8631C40.9552 67.7988 40.3665 67.9442 39.7916 67.6534C39.2775 67.3905 38.8353 67.0633 38.5313 66.5852C37.9675 65.6931 37.8569 64.678 37.9426 63.6545C38.0062 62.8939 38.1996 62.164 38.7717 61.5824C39.1725 61.1741 39.5567 60.7966 40.1592 60.7211C40.4522 60.6847 40.7341 60.5169 41.0271 60.5001C41.3339 60.4834 41.66 60.5365 41.9557 60.6288C42.4671 60.791 42.9507 61.0175 43.2962 61.4705C43.6307 61.9123 43.9071 62.3626 43.9181 62.9498C43.9236 63.2966 44.0176 63.6405 44.037 63.9873C44.0535 64.3368 43.8601 64.5074 43.5118 64.5074C42.8595 64.5074 42.2073 64.5074 41.5577 64.5074V64.5102ZM41.0962 63.3609C41.45 63.3609 41.8037 63.3665 42.1547 63.3609C42.8457 63.3497 42.9176 63.5063 42.5362 62.7261C42.047 61.725 40.6512 61.5907 39.9851 62.3486C39.8054 62.5527 39.6617 62.7904 39.5291 63.0281C39.3549 63.3385 39.3743 63.3581 39.7363 63.3609C40.1896 63.3609 40.6401 63.3609 41.0934 63.3609H41.0962Z" fill="white"/>
<path d="M164.109 64.5111C163.479 64.5111 162.848 64.5278 162.218 64.5027C161.925 64.4915 161.84 64.6341 161.917 64.855C162.03 65.1766 162.168 65.501 162.362 65.7778C162.522 66.01 162.754 66.2085 162.992 66.3595C163.672 66.7902 164.352 66.6056 165.021 66.3008C165.17 66.2337 165.322 66.1638 165.46 66.0743C165.938 65.7723 166.342 65.968 166.417 66.5413C166.458 66.8712 166.372 67.1285 166.043 67.2739C165.632 67.4557 165.239 67.7018 164.814 67.8304C164.518 67.9199 164.178 67.8472 163.86 67.8612C163.244 67.8891 162.649 67.8472 162.086 67.5312C161.555 67.2348 161.193 66.8013 160.927 66.2812C160.469 65.3864 160.466 64.4048 160.546 63.44C160.612 62.657 160.908 61.9132 161.505 61.3735C161.994 60.9289 162.583 60.7079 163.252 60.5765C163.835 60.4619 164.355 60.5989 164.844 60.7639C165.303 60.9177 165.756 61.2085 166.054 61.6727C166.56 62.4557 166.552 63.3226 166.522 64.1979C166.511 64.4859 166.309 64.5027 166.104 64.5055C165.441 64.5111 164.778 64.5055 164.114 64.5055L164.109 64.5111ZM165.214 63.3617C165.281 62.8947 164.816 62.1425 164.424 62.0195C163.987 61.8824 163.567 61.8265 163.1 61.9971C162.555 62.1956 162.235 62.5536 162.047 63.0681C161.994 63.2135 162.005 63.3617 162.229 63.3617C163.219 63.3617 164.208 63.3617 165.214 63.3617Z" fill="white"/>
<path d="M114.441 64.2144C114.441 64.0019 114.433 63.7894 114.441 63.5769C114.48 62.7239 114.734 61.9465 115.392 61.3845C115.898 60.951 116.47 60.6071 117.178 60.6015C117.332 60.6015 117.498 60.4672 117.642 60.4924C118.46 60.6378 119.311 60.7329 119.936 61.3677C120.42 61.8598 120.743 62.4499 120.796 63.1658C120.834 63.7027 120.956 64.248 120.901 64.7765C120.804 65.6965 120.61 66.6222 119.817 67.229C119.35 67.5869 118.844 67.9085 118.206 67.8638C117.943 67.8442 117.675 67.8498 117.41 67.8638C116.083 67.9253 115.243 67.2262 114.676 66.088C114.378 65.4868 114.436 64.8464 114.436 64.2116L114.441 64.2144ZM119.577 64.22C119.522 63.9935 119.428 63.753 119.414 63.5097C119.394 63.0987 119.206 62.7715 118.96 62.4862C118.795 62.2933 118.568 62.092 118.336 62.036C117.91 61.9354 117.435 61.7899 117.026 62.0304C116.677 62.2374 116.299 62.5002 116.105 62.8386C115.837 63.3056 115.793 63.8677 115.818 64.4298C115.851 65.0925 116.02 65.6434 116.506 66.1384C117.145 66.7871 118.316 66.6585 118.861 66.1384C119.408 65.6154 119.419 64.9135 119.577 64.2172V64.22Z" fill="white"/>
<path d="M125.284 67.8526C124.792 67.917 124.275 67.8806 123.811 67.6289C123.344 67.3773 122.921 67.0696 122.625 66.5915C122.095 65.7274 121.99 64.7794 122.048 63.8118C122.111 62.7827 122.448 61.8403 123.3 61.2C123.728 60.8784 124.212 60.6099 124.784 60.6071C124.908 60.6071 125.033 60.5512 125.157 60.5232C125.221 60.5092 125.29 60.4757 125.348 60.4897C125.953 60.6547 126.614 60.6575 127.155 61.0126C127.741 61.3957 128.139 61.969 128.363 62.6261C128.59 63.2889 128.734 63.9964 128.615 64.6983C128.493 65.4058 128.407 66.1273 127.94 66.7425C127.266 67.6373 126.387 67.9617 125.29 67.8554L125.284 67.8526ZM125.168 66.5859C125.773 66.6054 126.205 66.4656 126.525 66.1412C127.061 65.5959 127.183 64.8717 127.222 64.139C127.233 63.9405 127.147 63.7363 127.106 63.535C127.003 63.0064 126.741 62.5842 126.34 62.2234C126.122 62.0249 125.865 62.0892 125.649 61.9941C125.143 61.7704 124.726 61.9941 124.353 62.2346C123.645 62.6905 123.471 63.4623 123.427 64.2397C123.408 64.5696 123.551 64.9164 123.64 65.2492C123.858 66.0545 124.53 66.5859 125.163 66.5859H125.168Z" fill="white"/>
<path d="M31.2486 67.8665C30.9362 67.8665 30.6599 67.8833 30.389 67.8581C30.295 67.8497 30.1817 67.7463 30.132 67.6568C30.0518 67.5086 30.0186 67.338 29.9551 67.1506C29.6262 67.338 29.347 67.5365 29.0375 67.6652C28.4709 67.9001 27.9098 68.0455 27.2547 67.9001C26.7932 67.7966 26.4449 67.612 26.1464 67.2904C26.0276 67.1618 25.964 66.9744 25.9004 66.8039C25.6766 66.2082 25.6241 65.6042 25.9695 65.0421C26.1243 64.7932 26.3316 64.5416 26.5776 64.3933C26.901 64.1976 27.299 64.1277 27.6389 63.9515C28.048 63.7418 28.4709 63.7334 28.9076 63.7222C29.1867 63.7166 29.4659 63.6607 29.7422 63.6076C29.792 63.5992 29.8583 63.5069 29.8639 63.4454C29.9247 62.8777 29.6814 62.4386 29.2696 62.0779C29.2392 62.0499 29.1922 62.0248 29.1535 62.0248C28.5261 62.0304 27.8766 61.9017 27.346 62.4135C27.2022 62.5533 26.9894 62.626 26.7959 62.7043C26.7296 62.7323 26.5997 62.7127 26.5555 62.6652C26.3841 62.4666 26.1907 62.2681 26.0912 62.0332C25.9778 61.7647 26.0912 61.5018 26.362 61.3592C26.8236 61.1187 27.2741 60.8447 27.7578 60.6713C28.8799 60.2714 30.2536 60.5622 30.9169 61.7759C31.0523 62.0192 31.0634 62.338 31.1131 62.6232C31.4033 64.2228 31.1712 65.8391 31.243 67.447C31.2486 67.5673 31.243 67.6903 31.243 67.8693L31.2486 67.8665ZM29.8583 64.9386C29.0098 64.7653 28.2636 65.0058 27.5256 65.2742C27.2326 65.3805 27.0834 65.8782 27.1663 66.1299C27.2962 66.5186 27.6306 66.6612 27.9402 66.692C28.2636 66.7256 28.6173 66.6081 28.938 66.4963C29.1646 66.4152 29.3719 66.2474 29.5598 66.088C29.6842 65.9817 29.8141 65.8307 29.8445 65.6769C29.8915 65.442 29.8583 65.1931 29.8583 64.9386Z" fill="white"/>
<path d="M66.5684 67.8412C65.7641 67.8664 65.402 68.0593 65.3799 67.0386C65.1643 67.1868 64.957 67.3127 64.7663 67.4665C64.4485 67.721 64.114 67.9027 63.6884 67.872C63.5585 67.8636 63.4231 67.9922 63.2904 67.9866C62.721 67.9698 62.1323 67.9139 61.6984 67.5224C61.4469 67.2959 61.2672 66.9352 61.1677 66.5996C60.8858 65.646 61.2341 64.6924 62.0936 64.273C62.6934 63.9821 63.3291 63.6913 64.0422 63.7165C64.4098 63.7305 64.7801 63.655 65.145 63.6074C65.192 63.6018 65.2749 63.4956 65.2638 63.4536C65.2003 63.1572 65.1422 62.8552 65.0317 62.5783C64.8769 62.1924 64.5784 61.9855 64.1445 62.0163C64.056 62.0219 63.9648 62.033 63.8791 62.0163C63.3761 61.9156 62.9947 62.2008 62.6215 62.4525C62.1849 62.7489 61.8808 62.7797 61.6514 62.4693C61.3502 62.0582 61.4469 61.5017 61.8864 61.2389C62.4143 60.9257 62.9753 60.7327 63.5751 60.5733C64.208 60.4055 64.7525 60.5593 65.2666 60.7691C65.8581 61.0095 66.2948 61.4766 66.4081 62.1952C66.7038 64.0688 66.4164 65.9452 66.5601 67.8412H66.5684ZM65.2168 64.8127C64.5397 64.9189 63.8764 65.0112 63.2185 65.1287C62.9173 65.1818 62.5497 65.5817 62.5276 65.8166C62.4834 66.3172 63.1135 66.8457 63.611 66.7059C63.9289 66.6164 64.244 66.4961 64.5452 66.3563C65.1533 66.0739 65.3633 65.6208 65.2168 64.8099V64.8127Z" fill="white"/>
<path d="M148.44 60.7385C148.357 61.0405 148.316 61.2978 148.219 61.5299C147.89 62.3045 147.534 63.0707 147.205 63.8454C146.962 64.4158 146.799 65.0254 146.495 65.5568C146.296 65.9035 146.229 66.2838 146.058 66.6278C145.875 66.9913 145.721 67.3688 145.56 67.7408C145.287 68.37 145.008 68.9992 144.751 69.6367C144.662 69.8521 144.543 69.9443 144.311 69.9332C143.96 69.9164 143.606 69.9276 143.222 69.9276C143.233 69.8129 143.222 69.7206 143.255 69.6479C143.496 69.1082 143.75 68.5741 143.993 68.0344C144.098 67.8051 144.242 67.5786 144.272 67.3381C144.297 67.1367 144.203 66.9102 144.129 66.7089C143.955 66.2391 143.772 65.7693 143.57 65.3107C143.294 64.6871 142.984 64.0775 142.708 63.4539C142.365 62.6765 142.036 61.8907 141.713 61.1077C141.674 61.0126 141.694 60.8895 141.683 60.7357C142.144 60.7357 142.586 60.6994 143.018 60.7581C143.153 60.7777 143.288 61.0377 143.366 61.2139C143.526 61.5691 143.637 61.9494 143.786 62.3101C143.979 62.7743 144.195 63.2301 144.391 63.6943C144.587 64.1641 144.767 64.6423 144.963 65.1149C144.991 65.1848 145.066 65.2352 145.121 65.2939C145.165 65.252 145.229 65.2184 145.251 65.1653C145.527 64.4885 145.795 63.8062 146.074 63.1267C146.373 62.3996 146.669 61.6725 146.987 60.9539C147.031 60.856 147.183 60.7581 147.293 60.7497C147.644 60.7245 147.998 60.7413 148.446 60.7413L148.44 60.7385Z" fill="white"/>
<path d="M135.917 66.8235C136.05 66.5914 136.133 66.2502 136.332 66.1524C136.558 66.0433 136.884 66.0377 137.155 66.2838C137.495 66.5942 137.946 66.6026 138.393 66.6138C138.731 66.6222 139.004 66.5075 139.27 66.3341C139.679 66.0685 139.632 65.526 139.142 65.2743C138.802 65.0981 138.404 65.0394 138.051 64.8884C137.412 64.6171 136.721 64.4186 136.298 63.795C136.224 63.6831 136.169 63.5377 136.157 63.4035C136.11 62.7827 135.994 62.1451 136.395 61.5858C136.84 60.965 137.432 60.6826 138.197 60.5875C138.943 60.4952 139.598 60.6658 140.229 60.979C140.773 61.253 140.853 61.5662 140.524 62.1171C140.378 62.3604 140.168 62.4443 139.878 62.2905C139.446 62.0612 139.004 61.8179 138.487 61.8878C138.189 61.9298 137.896 61.9969 137.678 62.2458C137.415 62.5422 137.412 62.8694 137.749 63.0511C138.098 63.2385 138.493 63.3392 138.861 63.4874C139.582 63.781 140.392 63.9488 140.751 64.7849C140.784 64.8632 140.823 64.9499 140.817 65.031C140.784 65.5791 140.781 66.1356 140.679 66.6697C140.632 66.913 140.422 67.1814 140.212 67.3241C139.795 67.6093 139.355 67.8861 138.808 67.8638C138.656 67.8582 138.496 67.9868 138.344 67.9784C137.52 67.9337 136.741 67.7323 136.066 67.2318C135.989 67.1759 136.003 66.9941 135.975 66.871C135.958 66.8543 135.939 66.8347 135.923 66.8179L135.917 66.8235Z" fill="white"/>
<path d="M153.996 65.6065C154.018 66.1294 153.946 66.6216 153.611 67.0383C153.252 67.4885 152.799 67.7933 152.216 67.866C152.025 67.8912 151.84 67.9387 151.649 67.9751C151.597 67.9863 151.538 68.0002 151.486 67.9918C151.041 67.9107 150.59 67.8492 150.157 67.7262C149.891 67.6507 149.665 67.4521 149.405 67.3543C149.137 67.2536 149.079 67.055 149.142 66.8341C149.214 66.588 149.3 66.2413 149.482 66.1546C149.706 66.0483 150.032 66.0316 150.306 66.2832C150.64 66.5908 151.091 66.6468 151.538 66.5992C151.773 66.5741 152.022 66.5573 152.232 66.4678C152.506 66.3503 152.73 66.0847 152.68 65.7967C152.644 65.5897 152.417 65.3576 152.216 65.2541C151.815 65.05 151.362 64.9493 150.95 64.7648C150.541 64.5802 150.123 64.3817 149.764 64.116C149.399 63.8475 149.291 63.4029 149.264 62.9555C149.239 62.536 149.314 62.1417 149.477 61.7418C149.629 61.3727 149.902 61.177 150.195 60.9756C150.543 60.7407 150.93 60.668 151.345 60.5925C152.091 60.4583 152.732 60.6736 153.376 60.9756C153.703 61.1294 153.893 61.3448 153.846 61.7586C153.797 62.2005 153.396 62.4633 152.99 62.2704C152.578 62.0746 152.174 61.8509 151.693 61.8873C151.298 61.918 150.936 62.0467 150.72 62.385C150.643 62.5081 150.668 62.8017 150.762 62.9107C151.074 63.2687 151.538 63.3554 151.972 63.5008C152.724 63.7525 153.548 63.9398 153.891 64.7955C153.987 65.0416 153.962 65.3352 153.993 65.6093L153.996 65.6065Z" fill="white"/>
<path d="M81.1423 66.1853C81.7172 65.9336 82.0488 66.2944 82.4302 66.4873C82.9803 66.767 83.9172 66.616 84.3456 66.1769C84.5584 65.956 84.5087 65.6959 84.3263 65.461C84.0057 65.0472 83.5165 65.0612 83.1074 64.8822C82.621 64.6669 82.0986 64.5075 81.6508 64.2306C80.9543 63.8 80.8852 62.4996 81.2307 61.7977C81.5071 61.2357 81.9383 60.8637 82.5629 60.7323C82.8421 60.6736 83.1157 60.5757 83.3921 60.5002C83.4335 60.489 83.4833 60.4778 83.522 60.489C84.0748 60.6596 84.6911 60.6316 85.1858 60.9896C85.3987 61.1434 85.6557 61.2412 85.6474 61.6272C85.6391 61.9851 85.4539 62.2088 85.2218 62.3123C85.0559 62.385 84.7685 62.2591 84.5667 62.1585C83.9504 61.8593 83.1074 61.6831 82.5408 62.3151C82.3473 62.5304 82.3252 62.7625 82.5408 62.9219C82.7951 63.1093 83.0991 63.2323 83.3893 63.3637C83.9587 63.6182 84.5529 63.8251 85.1057 64.1132C85.7248 64.4376 85.8685 65.0695 85.8271 65.6904C85.7884 66.258 85.7276 66.8844 85.2135 67.2647C84.7989 67.5723 84.3954 67.9359 83.8039 67.8744C83.6215 67.8548 83.4225 68.003 83.2373 67.9862C82.5159 67.9191 81.8028 67.8044 81.1893 67.3626C81.1119 67.3067 81.0234 67.2647 80.8604 67.1697C80.9571 66.8313 81.0621 66.4733 81.1423 66.1909V66.1853Z" fill="white"/>
<path d="M183.616 61.6194C183.583 62.243 183.16 62.5143 182.627 62.2262C182.226 62.0081 181.817 61.8403 181.355 61.8907C180.99 61.9298 180.637 62.0529 180.449 62.3856C180.374 62.5171 180.393 62.8163 180.49 62.9086C180.698 63.1043 180.971 63.2749 181.245 63.3504C181.958 63.5489 182.671 63.7615 183.249 64.2341C183.472 64.4186 183.594 64.7738 183.674 65.0758C183.743 65.3359 183.666 65.6323 183.694 65.9091C183.771 66.7508 183.323 67.2542 182.654 67.6289C182.372 67.7883 182.088 67.8946 181.748 67.875C181.552 67.8638 181.35 68.0008 181.154 67.9869C180.369 67.9337 179.617 67.7268 178.981 67.2458C178.873 67.1619 178.868 66.8459 178.915 66.6642C179.067 66.0685 179.534 65.9343 180.04 66.3062C180.435 66.597 180.891 66.6138 181.355 66.6054C181.634 66.5998 181.9 66.5831 182.124 66.3845C182.328 66.2027 182.544 66.0014 182.425 65.705C182.317 65.4365 182.129 65.2156 181.825 65.1149C181.154 64.8884 180.471 64.6759 179.824 64.3851C179.473 64.2257 179.252 63.8929 179.108 63.4846C178.848 62.7492 178.987 62.0948 179.365 61.4768C179.487 61.2754 179.727 61.1468 179.921 60.9958C180.266 60.7246 180.678 60.6826 181.093 60.6043C181.997 60.4365 182.759 60.7274 183.472 61.2307C183.566 61.2978 183.572 61.4908 183.616 61.6278V61.6194Z" fill="white"/>
<path d="M32.4841 60.9703C32.7798 60.9312 33.0451 60.8892 33.3132 60.864C33.5371 60.8445 33.6449 60.7354 33.667 60.5117C33.7168 59.9971 33.772 59.4826 33.8356 58.9681C33.8909 58.5206 33.96 58.4619 34.3884 58.4619C34.5515 58.4619 34.7173 58.4619 34.9301 58.4619C34.9301 59.1191 34.955 59.7511 34.9191 60.3831C34.9025 60.6795 34.9716 60.7578 35.248 60.7494C35.7538 60.7326 36.2623 60.7438 36.8151 60.7438C36.8151 61.1744 36.8234 61.5827 36.804 61.991C36.804 62.0441 36.652 62.1308 36.5691 62.1336C36.1379 62.1476 35.7068 62.1392 35.2756 62.1392C35.1678 62.1392 35.06 62.1392 34.9439 62.1392C34.9274 62.2147 34.908 62.2539 34.908 62.2958C34.908 63.5234 34.908 64.7483 34.9052 65.9759C34.9052 66.3282 35.4055 66.6694 35.7151 66.5156C35.7731 66.4848 35.8367 66.4597 35.8947 66.4317C36.5194 66.1157 36.9643 66.4093 36.9395 67.1364C36.9367 67.2539 36.8759 67.4133 36.7902 67.4748C36.5774 67.6202 36.3369 67.7964 36.0992 67.8131C35.6847 67.8411 35.2894 68.1739 34.8444 67.8831C34.6758 67.774 34.4354 67.7852 34.2502 67.6929C33.7112 67.4189 33.562 66.9099 33.5565 66.3534C33.5454 65.081 33.5399 63.8059 33.562 62.5335C33.5675 62.1979 33.4597 62.0945 33.1502 62.1392C33.0645 62.1532 32.9705 62.156 32.8848 62.1364C32.6416 62.0777 32.4316 61.9994 32.4785 61.6638C32.509 61.4485 32.4841 61.222 32.4841 60.9703Z" fill="white"/>
<path d="M156.143 62.1396C155.881 62.1396 155.662 62.1508 155.447 62.1368C155.209 62.1229 155.046 62.0194 155.079 61.737C155.09 61.6391 155.079 61.5356 155.079 61.4349C155.079 60.9623 155.112 60.9204 155.579 60.8617C155.751 60.8393 156.021 60.898 156.08 60.8085C156.201 60.6212 156.237 60.3639 156.265 60.129C156.317 59.7068 156.312 59.2733 156.395 58.8566C156.425 58.7056 156.618 58.535 156.773 58.4763C156.947 58.4092 157.163 58.4623 157.403 58.4623C157.403 59.1055 157.423 59.7291 157.395 60.3471C157.381 60.6771 157.486 60.7694 157.801 60.747C158.219 60.7191 158.642 60.747 159.062 60.7358C159.25 60.7302 159.322 60.8001 159.316 60.9875C159.308 61.2672 159.305 61.5468 159.316 61.8236C159.324 62.0529 159.241 62.1452 159.006 62.1396C158.49 62.1285 157.973 62.1368 157.434 62.1368C157.423 62.2487 157.406 62.3326 157.406 62.4193C157.406 63.4679 157.395 64.5194 157.412 65.568C157.414 65.789 157.478 66.0295 157.586 66.2196C157.774 66.5524 158.111 66.6027 158.473 66.4377C158.667 66.351 158.965 66.1916 159.065 66.2672C159.275 66.4265 159.418 66.7034 159.523 66.9607C159.673 67.3242 159.349 67.4864 159.12 67.5899C158.73 67.766 158.307 67.9562 157.895 67.9646C157.329 67.9758 156.737 67.8359 156.375 67.3158C156.237 67.1145 156.157 66.8292 156.151 66.5831C156.129 65.2437 156.14 63.9014 156.14 62.5619C156.14 62.4416 156.14 62.3186 156.14 62.134L156.143 62.1396Z" fill="white"/>
<path d="M45.6538 60.7354C45.9744 60.7354 46.2702 60.7326 46.5659 60.7354C46.7925 60.7382 46.9086 60.8528 46.8976 61.0933C46.8893 61.2807 46.8976 61.468 46.8976 61.7393C47.0109 61.6386 47.091 61.5967 47.1242 61.5324C47.4724 60.8137 48.1662 60.6403 48.8323 60.5089C49.1142 60.4529 49.4514 60.6487 49.7527 60.755C49.8107 60.7745 49.8605 60.9172 49.8549 60.9982C49.8356 61.3981 49.7969 61.798 49.7582 62.2706C49.4486 62.2315 49.2026 62.2231 48.965 62.1672C48.484 62.0581 47.8539 62.2399 47.5498 62.7097C47.4669 62.8383 47.3315 62.9334 47.2513 63.0648C47.0772 63.35 46.9998 63.6576 47.0081 64.0072C47.0302 65.1565 46.9998 66.3059 47.0247 67.4552C47.033 67.8131 46.9197 67.8998 46.5935 67.8719C46.2895 67.8439 45.9799 67.8663 45.6538 67.8663V60.7382V60.7354Z" fill="white"/>
<path d="M72.5907 62.1865H70.8357C70.7693 62.2872 70.7306 62.3907 70.656 62.4494C70.1585 62.8437 69.8324 63.3051 69.849 63.993C69.8766 65.2654 69.8572 66.5377 69.8572 67.8353H68.5112V60.7352C68.8346 60.7352 69.1552 60.7044 69.4675 60.7519C69.5781 60.7687 69.7108 60.9533 69.7467 61.0847C69.7937 61.2665 69.7577 61.4678 69.7577 61.7307C69.8628 61.644 69.9457 61.6049 69.9816 61.5405C70.2829 61.012 70.75 60.7715 71.3166 60.5842C71.7809 60.4332 72.1402 60.5422 72.5216 60.7184C72.6073 60.7575 72.6985 60.9058 72.693 61.0008C72.6764 61.4007 72.6267 61.8006 72.588 62.1893L72.5907 62.1865Z" fill="white"/>
<path d="M131.669 67.8472H130.345V57.6318H131.669V67.8472Z" fill="white"/>
<path d="M162.978 11.0324C163.053 11.916 162.442 12.3103 161.862 12.3103C161.254 12.3103 160.712 11.8741 160.737 11.0212C160.762 10.1934 161.115 9.84668 162.003 9.84668C162.647 9.84668 162.978 10.2522 162.978 11.0352V11.0324Z" fill="white"/>
</g>
<defs>
<clipPath id="clip0_1_496">
<rect width="199" height="70" fill="white"/>
</clipPath>
</defs>
</svg>
